<?xml version="1.0" standalone="no"?>
<!DOCTYPE svg PUBLIC "-//W3C//DTD SVG 1.1//EN" "http://www.w3.org/Graphics/SVG/1.1/DTD/svg11.dtd">
<svg xmlns="http://www.w3.org/2000/svg">
<metadata>Copyright (C) 2015 by original authors @ fontello.com</metadata>
<defs>
<font id="ketcher" horiz-adv-x="1024" >
<font-face font-family="ketcher" font-weight="400" font-stretch="normal" units-per-em="1024" ascent="860" descent="-164" />
<missing-glyph horiz-adv-x="1024" />
<glyph glyph-name="-arrange" unicode="&#xe800;" d="m543 578l-5 0 0-5 199-199 5 0 0 5z m231 282l-6 0 0-6 250-250 6 0 0 6z m-249 0l-13 0 0-13 499-499 13 0 0 13z m-44-742l5 0 0 5-199 199-5 0 0-5z m-231-282l6 0 0 6-250 250-6 0 0-6z m249 0l13 0 0 13-499 499-13 0 0-13z m525 998l0 26-26 0-998-998 0-26 26 0z m-543-256l5 0 0-5-199-199-5 0 0 5z m-231 282l6 0 0-6-250-250-6 0 0 6z m249 0l13 0 0-13-499-499-13 0 0 13z m44-742l-5 0 0 5 199 199 5 0 0-5z m231-282l-6 0 0 6 250 250 6 0 0-6z m-249 0l-13 0 0 13 499 499 13 0 0-13z m-525 998l0 26 26 0 998-998 0-26-26 0z" horiz-adv-x="1024" />
<glyph glyph-name="-nopic" unicode="&#xe801;" d="m649-30c0-5-1-10-1-14-1-5-2-10-3-14-2-4-4-8-6-12-2-4-5-8-8-12l-14 0c3 4 5 8 7 12 2 4 4 8 5 13 1 4 3 9 3 13 1 5 1 9 1 14 0 9-1 19-4 27-3 9-7 18-12 25l14 0c3-4 6-7 8-11 2-5 4-9 6-13 1-5 2-9 3-14 0-5 1-9 1-14m-45-19l1-1c0-2-1-5-2-7 0-2-1-5-2-7-1-3-2-5-3-7-1-3-2-5-3-7l-13 0c1 2 1 5 2 7 0 3 1 5 2 8 0 3 1 5 1 7 0 3 1 5 1 7l16 0m-19 42c0 2 1 4 1 5 1 1 1 2 2 3 1 1 2 2 4 2 1 0 2 0 4 0 1 0 2 0 3 0 2 0 3-1 4-2 1-1 1-2 2-3 0-1 1-3 1-5 0-1-1-3-1-4-1-1-1-2-2-3-1-1-2-1-4-2-1 0-2 0-3 0-2 0-3 0-4 0-2 1-3 1-4 2-1 1-1 2-2 3 0 1-1 3-1 4m-20-43c2 0 3 0 5 1 1 0 3 1 5 1l0-13c-2-1-4-2-6-2-3-1-5-1-8-1-3 0-6 0-8 1-3 1-5 2-7 4-1 1-3 3-4 6-1 3-1 6-1 11l0 31-9 0 0 7 10 6 5 14 11 0 0-14 16 0 0-13-16 0 0-31c0-3 1-5 2-6 1-1 3-2 5-2m-69 41c-3 0-6-1-8-4-2-2-3-5-4-10l23 0c0 2 0 4-1 6 0 1-1 3-2 4-1 1-2 2-3 3-2 0-3 1-5 1m2-55c-5 0-9 1-13 2-4 2-7 3-10 6-3 3-5 6-7 11-1 4-2 9-2 14 0 6 1 11 2 15 2 4 4 8 6 11 3 3 6 5 10 6 3 2 7 2 12 2 4 0 8 0 11-2 4-1 7-3 9-5 2-3 4-6 6-10 1-3 2-7 2-12l0-9-40 0c0-2 0-4 1-6 1-2 2-4 3-5 1-2 3-3 5-4 2 0 4-1 6-1 2 0 4 0 6 1 2 0 3 0 5 1 2 0 3 1 5 1 2 1 3 2 5 2l0-13c-2-1-3-2-5-2-1-1-3-1-5-2-1 0-3 0-5-1-2 0-5 0-7 0m-102 66l20 0 10-36c1-2 1-5 1-7 1-2 1-4 1-6l0 0c0 1 0 2 1 3 0 1 0 2 0 3 0 1 0 3 1 4 0 1 0 2 0 3l11 36 19 0-25-73c-3-7-6-12-10-15-4-4-10-5-16-5-2 0-4 0-5 0-1 0-3 0-4 1l0 14c1 0 2-1 3-1 1 0 3 0 4 0 2 0 4 0 5 1 1 0 2 1 3 2 1 1 2 2 3 3 0 1 1 3 2 4l1 4-25 65m382 89c-21 0-40 3-58 9-17 6-31 15-43 27-13 12-22 28-28 47-7 19-10 42-10 69 0 30 3 55 10 74 7 20 16 36 28 49 12 11 27 20 44 25 17 5 36 8 57 8 15 0 30-2 46-6 15-3 29-9 42-15l-23-62c-12 5-23 9-34 13-11 3-21 5-31 5-20 0-34-8-43-23-9-15-13-37-13-67 0-30 4-52 13-66 9-14 23-21 42-21 15 0 29 2 42 5 13 4 25 10 38 16l0-68c-6-3-12-6-19-8-6-3-12-5-18-6-7-2-13-3-20-4-7-1-14-1-22-1m-293 379c0 8 1 14 4 19 2 5 5 9 9 12 4 3 9 6 14 7 6 1 11 2 17 2 6 0 12-1 17-2 6-1 10-4 14-7 4-3 7-7 10-12 2-5 3-11 3-19 0-7-1-14-3-19-3-5-6-9-10-12-4-3-8-5-14-7-5-1-11-2-17-2-6 0-11 1-17 2-5 2-10 4-14 7-4 3-7 7-9 12-3 5-4 12-4 19m85-374l-81 0 0 297 81 0 0-297m-256-5c-9 0-18 1-26 3-8 2-14 5-21 9-6 3-11 7-16 12-4 4-8 9-12 14l-4 0c1-6 1-12 2-18 0-4 1-9 1-14 1-5 1-8 1-11l0-121-81 0 0 428 66 0 11-38 4 0c4 6 8 12 13 17 5 5 10 10 16 14 7 4 14 7 22 9 8 3 17 4 26 4 16 0 30-3 42-10 13-6 24-16 33-29 9-13 16-29 21-48 5-19 7-42 7-67 0-25-2-47-7-67-6-19-13-35-22-48-9-13-21-23-33-29-13-7-27-10-43-10m-25 243c-9 0-17-2-23-5-6-3-11-8-15-15-4-6-7-14-9-25-2-10-3-21-3-34l0-9c0-15 1-27 2-38 2-12 5-21 9-29 4-7 9-13 15-17 7-3 15-5 25-5 16 0 27 7 35 22 7 16 11 38 11 67 0 30-4 52-11 66-8 15-20 22-36 22m328 347c0-30 4-52 13-67 8-15 22-22 40-22 19 0 32 7 41 22 8 15 12 37 12 67 0 29-4 51-12 66-9 15-22 22-41 22-19 0-32-7-41-22-8-15-12-37-12-66m189 0c0-25-3-47-10-66-6-19-15-35-27-48-11-14-26-24-43-31-17-6-36-10-57-10-19 0-37 4-54 10-16 7-31 17-43 31-12 13-21 29-28 48-6 19-10 41-10 66 0 24 3 46 10 65 6 20 15 36 27 49 12 13 26 23 43 29 17 7 36 10 57 10 20 0 38-3 54-10 17-6 31-16 43-29 12-13 21-29 28-49 7-19 10-41 10-65m-340-149l-81 0 0 173c0 22-3 38-10 48-6 11-16 17-30 17-11 0-20-3-27-7-7-4-13-10-17-19-4-8-7-18-9-31-2-12-2-26-2-42l0-139-82 0 0 297 62 0 11-38 5 0c4 7 9 14 15 19 6 6 13 10 20 14 8 4 15 6 24 8 8 1 16 2 25 2 14 0 27-2 39-6 12-4 22-10 31-19 8-9 15-21 19-34 5-14 7-30 7-50l0-193" horiz-adv-x="1024" />
<glyph glyph-name="-strip" unicode="&#xe802;" d="m998 850l16 0 0-1024-16 0z m-32 0l16 0 0-1024-16 0z m-31 0l15 0 0-1024-15 0z m-32 0l16 0 0-1024-16 0z m-32 0l16 0 0-1024-16 0z m-32 0l16 0 0-1024-16 0z m-32 0l16 0 0-1024-16 0z m-32 0l16 0 0-1024-16 0z m-32 0l16 0 0-1024-16 0z m-32 0l16 0 0-1024-16 0z m-32 0l16 0 0-1024-16 0z m-32 0l16 0 0-1024-16 0z m-32 0l16 0 0-1024-16 0z m-32 0l16 0 0-1024-16 0z m-32 0l16 0 0-1024-16 0z m-32 0l16 0 0-1024-16 0z m-32 0l16 0 0-1024-16 0z m-32 0l16 0 0-1024-16 0z m-32 0l16 0 0-1024-16 0z m-32 0l16 0 0-1024-16 0z m-32 0l16 0 0-1024-16 0z m-32 0l16 0 0-1024-16 0z m-31 0l16 0 0-1024-16 0z m-32 0l16 0 0-1024-16 0z m-32 0l16 0 0-1024-16 0z m-32 0l16 0 0-1024-16 0z m-32 0l16 0 0-1024-16 0z m-32 0l16 0 0-1024-16 0z m-32 0l16 0 0-1024-16 0z m-32 0l16 0 0-1024-16 0z m-32 0l16 0 0-1024-16 0z m-32 0l16 0 0-1024-16 0z" horiz-adv-x="1024" />
<glyph glyph-name="-test" unicode="&#xe803;" d="m512 284c141 0 256 115 256 256s-115 256-256 256-256-115-256-256 115-256 256-256z m-192 256c0 3 0 5 0 8l384 0c0-3 0-5 0-8s0-5 0-8l-384 0c0 3 0 5 0 8z m57 136l270 0c5-5 10-10 15-16l-300 0c5 6 10 11 15 16z m18 16c8 6 16 11 24 16l186 0c8-5 16-10 24-16l-234 0z m278-48c4-5 7-11 10-16l-342 0c3 5 6 11 10 16l322 0z m17-32c2-5 4-11 6-16l-368 0c2 5 4 11 6 16l356 0z m10-32c1-5 2-11 2-16l-380 0c0 5 1 11 2 16l376 0z m2-64c0-5-1-11-2-16l-376 0c-1 5-2 11-2 16l380 0z m-6-32c-2-5-4-11-6-16l-356 0c-2 5-4 11-6 16l368 0z m-13-32c-3-5-6-11-10-16l-322 0c-4 5-7 11-10 16l342 0z m-36-48l-270 0c-5 5-10 10-15 16l300 0c-5-6-10-11-15-16z m-18-16c-8-6-16-11-24-16l-186 0c-8 5-16 10-24 16l234 0z m-172-32l110 0c-18-5-36-8-55-8s-37 3-55 8z m110 368l-110 0c18 5 36 8 55 8s37-3 55-8z m201-504l-512 0c-141 0-256-115-256-256l0-64 8 0 1008 0 8 0 0 64c0 141-115 256-256 256z m-647-120l782 0c5-5 10-10 15-16l-812 0c5 6 10 11 15 16z m18 16c8 6 16 11 24 16l698 0c8-5 16-10 24-16l-746 0z m790-48c4-5 7-11 10-16l-854 0c3 5 6 11 10 16l834 0z m17-32c2-5 4-11 6-16l-880 0c2 5 4 11 6 16l868 0z m10-32c1-5 2-11 2-16l-892 0c0 5 1 11 2 16l888 0z m-188 152c19 0 37-3 55-8l-622 0c18 5 36 8 55 8l512 0z m-704-192c0 3 0 5 0 8l896 0c0-3 0-5 0-8l-896 0z" horiz-adv-x="1024" />
<glyph glyph-name="arom" unicode="&#xe804;" d="m473 291l-19-67-61 0 80 260 77 0 80-260-63 0-20 67z m66 44l-17 55c-4 16-9 35-13 50l-1 0c-3-15-7-35-12-50l-15-55z m-271 436c-82-141-163-282-244-423 81-141 162-282 244-423 163 0 325 0 488 0 82 141 163 282 244 423-81 141-162 282-244 423-163 0-325 0-488 0z m15-26c153 0 305 0 458 0 76-133 153-265 229-397-76-132-153-264-229-397-153 0-305 0-458 0-76 133-153 265-229 397 76 132 153 264 229 397z m229-133c-129 3-248-102-262-230-19-126 67-256 190-288 119-37 258 26 310 140 57 111 18 259-85 329-44 32-99 49-153 49z m0-26c118 3 227-96 237-214 14-115-69-232-183-256-111-28-236 37-275 145-45 106 2 238 103 293 35 21 77 32 118 32z" horiz-adv-x="1024" />
<glyph glyph-name="bond-any" unicode="&#xe805;" d="m827 477l-18 32 172 84 17-31z m-264-126l-17 32 178 86 18-32z m-258-122l-18 32 171 84 18-32z m-262-126l-17 31 178 87 18-32z" horiz-adv-x="1024" />
<glyph glyph-name="bond-aromatic" unicode="&#xe806;" d="m363 393l-17 34 211 111 18-34z m320 168l-17 33 211 111 18-34z m-640-335l-17 34 211 111 17-34z m103-235l-17 34 852 441 17-33z" horiz-adv-x="1024" />
<glyph glyph-name="bond-crossed" unicode="&#xe807;" d="m220-119c-26 12-46 26-18 50 190 295 380 590 570 884 25-12 46-26 18-50-190-295-380-590-570-884z m-179 204c-17 24-27 46 9 53 311 162 622 323 933 485 17-24 27-46-9-53-311-161-622-323-933-485z" horiz-adv-x="1024" />
<glyph glyph-name="bond-double" unicode="&#xe808;" d="m43 230l-17 33 850 441 17-34z m106-238l-18 34 850 441 17-33z" horiz-adv-x="1024" />
<glyph glyph-name="bond-doublearomatic" unicode="&#xe809;" d="m947 462l51 0 0-52-51 0z m-113 244l52 0 0-51-52 0z m-470-251l52 0 0-52-52 0z m118-245l51 0 0-52-51 0z m151 31l-18 34 216 113 17-34z m-479-251l-18 34 215 112 18-34z m354 489l-17 34 215 113 18-35z m-465-247l-17 34 215 113 18-34z" horiz-adv-x="1024" />
<glyph glyph-name="bond-down" unicode="&#xe80a;" d="m958 193l-345 527 41 27 344-528z m-115-31l-304 466 41 27 304-467z m-114-31l-264 405 41 27 264-406z m-114-32l-225 346 41 26 225-345z m-114-31l-185 285 41 26 185-284z m-114-31l-146 224 41 27 146-224z m-114-31l-106 163 41 27 106-163z m-114-31l-66 102 40 27 67-102z m-107-26l-26 41 40 27 27-41z" horiz-adv-x="1024" />
<glyph glyph-name="bond-single" unicode="&#xe80b;" d="m45 82l-19 37 953 495 19-37z" horiz-adv-x="1024" />
<glyph glyph-name="bond-singlearomatic" unicode="&#xe80c;" d="m148-3l-17 33 850 441 17-34z m670 702l50 0 0-51-50 0z m-461-247l51 0 0-50-51 0z m141 24l-17 33 211 111 17-34z m-455-242l-17 33 211 111 17-34z" horiz-adv-x="1024" />
<glyph glyph-name="bond-singledouble" unicode="&#xe80d;" d="m417 274l-17 34 214 112 17-34z m367 191l-17 33 214 113 17-34z m-741-387l-17 34 214 112 17-33z m653 74l-17 34 214 112 17-34z m-362-190l-18 34 214 112 18-34z m164 626l-17 34 214 112 17-33z m-367-195l-17 34 214 112 17-34z" horiz-adv-x="1024" />
<glyph glyph-name="bond-triple" unicode="&#xe80e;" d="m232-55l-16 30 767 397 15-30z m-98 187l-16 30 766 399 16-30z m-93 192l-15 30 766 397 16-30z" horiz-adv-x="1024" />
<glyph glyph-name="bond-up" unicode="&#xe80f;" d="m26-50l652 796 320-496z" horiz-adv-x="1024" />
<glyph glyph-name="bond-updown" unicode="&#xe810;" d="m58-45l-32 18 88 161 156-57-14 257 236-176-97 376 313-291-187 498 477-483-26-26-356 360 182-483-336 312 92-356-257 192 13-235-179 67z" horiz-adv-x="1024" />
<glyph glyph-name="chain" unicode="&#xe811;" d="m345 197l-319 223 0 79 319-218 316 218 337-218 0-84-337 223z" horiz-adv-x="1024" />
<glyph glyph-name="charge-minus" unicode="&#xe812;" d="m635 752c0-45 0-90 0-134 121 0 242 0 363 0 0 44 0 89 0 134-121 0-242 0-363 0z m27-26c103 0 207 0 310 0 0-28 0-55 0-82-103 0-207 0-310 0 0 27 0 54 0 82z m-339 78c-100-304-199-608-297-912 47 0 94 0 142 0 26 93 57 185 85 278 94 0 187 0 281 0 30-93 62-185 90-278 48 0 96 0 144 0-98 304-196 608-296 912-50 0-99 0-149 0z m18-26c38 0 75 0 113 0 93-287 185-573 278-860-30 0-59 0-88 0-31 93-59 186-90 278-107 0-213 0-319 0-30-92-58-185-87-278-28 0-56 0-85 0 93 287 186 573 278 860z m39-75c-31-150-84-293-130-439 5-10 39-1 55-4 78 0 156 0 234 0-44 148-102 292-134 443-8 0-16 0-25 0z m13-56c28-123 74-241 112-361-74 0-148 0-221 0 37 120 83 238 109 361z" horiz-adv-x="1024" />
<glyph glyph-name="charge-plus" unicode="&#xe813;" d="m749 815c0-39 0-77 0-115-38 0-76 0-115 0 0-45 0-90 0-134 39 0 77 0 115 0 0-39 0-77 0-115 45 0 90 0 135 0 0 38 0 76 0 115 38 0 76 0 114 0 0 44 0 89 0 134-38 0-76 0-114 0 0 38 0 76 0 115-45 0-90 0-135 0z m26-26c28 0 55 0 82 0 0-39 0-77 0-115 39 0 77 0 115 0 0-28 0-55 0-82-38 0-76 0-115 0 0-38 0-77 0-115-27 0-54 0-82 0 0 38 0 77 0 115-38 0-76 0-114 0 0 27 0 54 0 82 38 0 76 0 114 0 0 38 0 76 0 115z m-457 8c-99-305-198-611-297-916 47 0 94 0 142 0 29 93 58 187 87 280 93 0 187 0 281 0 30-93 60-187 90-280 48 0 97 0 145 0-99 305-199 611-298 916-50 0-100 0-150 0z m20-27c37 0 74 0 111 0 94-287 187-575 281-863-30 0-60 0-90 0-30 94-60 187-90 280-107 0-213 0-320 0-29-93-58-186-87-280-28 0-57 0-86 0 93 288 187 576 281 863z m38-75c-29-145-81-283-125-424-9-17-6-24 14-20 90 0 181 0 271 0-52 160-99 296-135 444-8 0-16 0-25 0z m13-62c31-121 74-238 111-356-73 0-146 0-219 0 36 118 80 235 108 356z" horiz-adv-x="1024" />
<glyph glyph-name="cleanup" unicode="&#xe814;" d="m539 208c0 26-1 47-2 66l54 0 2-28 1 0c15 21 37 32 66 32 43 0 82-37 82-100 0-72-46-106-90-106-23 0-42 10-51 23l-1 0 0-98-61 0 0 211z m61-47c0-5 1-9 1-13 4-16 19-29 36-29 27 0 43 22 43 56 0 31-15 55-42 55-17 0-33-13-37-31 0-3-1-7-1-11l0-27z m-111-21c0-26 1-47 2-64l-53 0-3 28-1 0c-8-12-26-32-62-32-40 0-69 25-69 86l0 116 61 0 0-106c0-29 9-46 31-46 17 0 27 11 31 21 1 4 2 8 2 13l0 118 61 0z m322 407c0 25-1 45-1 63l53 0 3-27 1 0c8 13 28 32 61 32 40 0 70-27 70-86l0-116-61 0 0 109c0 26-9 43-31 43-17 0-27-12-32-23-1-4-1-10-1-15l0-114-62 0z m-49-86c0-19 1-37 3-48l-55 0-3 20-2 0c-12-16-33-25-56-25-40 0-64 29-64 61 0 51 46 75 116 75l0 3c0 10-6 25-36 25-20 0-41-7-54-14l-12 39c14 8 41 18 77 18 66 0 86-39 86-86l0-68z m-59 45c-32 0-57-8-57-31 0-16 10-23 24-23 15 0 28 10 32 22 0 3 1 7 1 11l0 21z m-271-14c2-26 27-38 56-38 21 0 38 3 54 9l8-42c-20-8-45-12-71-12-67 0-105 39-105 101 0 50 31 105 99 105 64 0 88-50 88-98 0-11-1-20-2-25z m72 42c0 15-6 40-34 40-26 0-37-24-38-40z m-230 165l62 0 0-286-62 0z m-37-279c-10-5-36-12-69-12-94 0-142 59-142 137 0 93 66 144 148 144 32 0 56-6 67-12l-13-48c-12 5-29 10-51 10-49 0-87-30-87-91 0-54 32-88 87-88 19 0 39 3 52 9z" horiz-adv-x="1024" />
<glyph glyph-name="copy" unicode="&#xe815;" d="m239 719c-16 0-28-14-28-29l0-799c0-15 12-29 28-29l601 0 5 0 4 3 134 124 4 4 0 6 0 691c0 15-12 29-28 29z m0-26l720 0c0 0 2-1 2-3l0-686-126-116-596 0c0 0-2 1-2 3l0 799c0 3 2 3 2 3z m128-621l484 0 0-22-484 0z m0 116l484 0 0-22-484 0z m0 116l484 0 0-22-484 0z m0 116l484 0 0-22-484 0z m0 117l484 0 0-22-484 0z m-302 297c-16 0-28-14-28-29l0-799c0-15 12-30 28-30l146 0 0 27-146 0c0 0-2 1-2 3l0 799c0 2 2 3 2 3l720 0c0 0 2-1 2-3l0-86 26 0 0 86c0 15-12 29-28 29z" horiz-adv-x="1024" />
<glyph glyph-name="cut" unicode="&#xe816;" d="m193 839c-43-26-43-84-40-129 7-86 71-151 119-218 45-58 91-114 139-169-20-25-40-49-60-74-76 18-145-31-191-87-48-52-94-127-62-199 33-84 139-125 221-88 79 33 137 104 169 181 25 40-4 90-1 122 15 24 31 35 46 4 19-28-25-73-2-111 25-76 79-143 148-184 75-46 186-27 233 50 42 57 24 134-17 186-47 64-113 136-200 129-25-12-34 15-48 29-11 14-22 28-34 42 83 100 171 198 237 311 26 56 33 127 4 184-14 29-31 18-42-2-100-123-200-246-300-369-106 131-213 261-319 392z m-2-39c107-131 214-263 321-394 107 131 214 263 321 394 30-68 7-149-38-206-66-94-141-183-216-271 28-34 56-69 84-103 62 22 126-13 167-59 43-48 97-111 75-181-26-75-119-113-191-81-73 32-128 99-156 173-13 34-6 74 21 99-22 25-45 50-67 75-22-25-44-50-67-75 36-32 32-87 10-126-41-78-113-157-207-157-80-1-157 82-128 162 25 63 73 118 129 156 33 21 75 26 112 14 28 34 56 69 84 103-85 102-175 203-244 316-25 49-32 111-10 161z m501-629c-49 5-81-48-68-92 16-64 68-119 130-139 50-16 104 32 93 84-11 74-79 143-155 147z m-360 0c-78-5-147-75-156-152-8-56 55-98 104-76 61 27 115 84 122 152 5 41-28 79-70 76z m0-26c57 2 50-74 23-105-26-37-65-77-113-76-50 9-47 73-22 105 24 39 65 73 112 76z m360 0c67-7 126-68 130-135 0-48-64-59-94-29-43 30-87 79-78 136 5 18 24 29 42 28z" horiz-adv-x="1024" />
<glyph glyph-name="dearom" unicode="&#xe817;" d="m476 291l-19-67-61 0 80 260 77 0 81-260-64 0-20 67z m66 44l-16 55c-5 16-10 35-13 50l-1 0c-4-15-8-35-12-50l-16-55z m-173 330l0-27 267-3 0 26-267 4z m410-332l-138-235 22-13 139 235-23 13z m-566 0l-23-13 138-235 23 13-138 235z m55 438c-82-141-163-282-244-423 81-141 162-282 244-423 163 0 325 0 488 0 82 141 163 282 244 423-81 141-162 282-244 423-163 0-325 0-488 0z m15-26c153 0 305 0 458 0 76-133 153-265 229-397-76-132-153-264-229-397-153 0-305 0-458 0-76 133-153 265-229 397 76 132 153 264 229 397z" horiz-adv-x="1024" />
<glyph glyph-name="dropdown" unicode="&#xe818;" d="m897 91c0-73-59-132-131-132l-560 0c-72 0-132 59-132 132l692 691c72 0 131-59 131-132l0-559z" horiz-adv-x="1024" />
<glyph glyph-name="erase" unicode="&#xe819;" d="m958 725c-18 0-33-10-50-22 0 0 0 0 0 0l-573-405 0 0 0 0c-17-12-32-24-44-45-12-20-22-49-33-93l0 0 0-1-49-213-1-3 1-3c6-22 19-39 37-45 19-6 40-2 58 12 1 0 1 0 1 0l646 452 0 1 1 0c35 34 49 72 46 120l0 0-2 207 0 1-1 2c-2 10-6 19-13 26-7 6-16 9-24 9z m0-26c3 0 4 0 5-2 2-2 4-6 6-13l3-205 0 0 0 0c2-43-7-69-38-99l-645-452 0 0 0 0c-13-10-25-11-34-8-8 3-16 10-20 23l49 210c0 1 0 1 0 1l0 0c11 43 20 69 30 86 10 17 20 26 36 37l0 0 573 405 0 0 1 0c15 11 28 17 34 17z m-204 111c-2 0-5 0-7 0-28-2-57-11-79-28 0 0 0 0 0 0l-513-366 0 0c-17-12-31-25-44-45-12-21-22-49-32-93-1-2-17-44-32-93-7-24-14-50-18-73-4-23-7-42 1-57 7-14 22-28 42-47 20-19 46-40 72-59 26-20 53-37 76-49 11-6 22-10 31-12 10-2 20-3 30 3l1 1 1 2 2 2c-13-5-26-5-39-1-17 6-30 21-36 41-16 9-33 21-50 34-26 19-51 39-70 57-20 18-34 36-36 39-2 3-3 21 1 42 3 21 10 46 17 70 15 48 32 91 32 91l0 1 0 1c11 43 20 69 30 86 10 17 20 26 36 37 0 0 0 0 0 0l513 367 0 0c21 15 53 23 80 22 9 0 17-2 25-4 21-8 65-28 103-46 14-7 25-13 36-18 10 6 20 10 31 10 4 0 8 0 12-2-7 4-35 18-67 33-39 19-82 39-107 47l0 1c-13 4-27 6-42 6z" horiz-adv-x="1024" />
<glyph glyph-name="generic-groups" unicode="&#xe81a;" d="m649-30c0-5-1-10-1-14-1-5-2-10-3-14-2-4-4-8-6-12-2-4-5-8-8-12l-14 0c3 4 5 8 7 12 2 4 4 8 5 13 1 4 3 9 3 13 1 5 1 9 1 14 0 9-1 19-4 27-3 9-7 18-12 25l14 0c3-4 6-7 8-11 2-5 4-9 6-13 1-5 2-9 3-14 0-5 1-9 1-14m-45-19l1-1c0-2-1-5-2-7 0-2-1-5-2-7-1-3-2-5-3-7-1-3-2-5-3-7l-13 0c1 2 1 5 2 7 0 3 1 5 2 8 0 3 1 5 1 7 0 3 1 5 1 7l16 0m-19 42c0 2 1 4 1 5 1 1 1 2 2 3 1 1 2 2 4 2 1 0 2 0 4 0 1 0 2 0 3 0 2 0 3-1 4-2 1-1 1-2 2-3 0-1 1-3 1-5 0-1-1-3-1-4-1-1-1-2-2-3-1-1-2-1-4-2-1 0-2 0-3 0-2 0-3 0-4 0-2 1-3 1-4 2-1 1-1 2-2 3 0 1-1 3-1 4m-20-43c2 0 3 0 5 1 1 0 3 1 5 1l0-13c-2-1-4-2-6-2-3-1-5-1-8-1-3 0-6 0-8 1-3 1-5 2-7 4-1 1-3 3-4 6-1 3-1 6-1 11l0 31-9 0 0 7 10 6 5 14 11 0 0-14 16 0 0-13-16 0 0-31c0-3 1-5 2-6 1-1 3-2 5-2m-69 41c-3 0-6-1-8-4-2-2-3-5-4-10l23 0c0 2 0 4-1 6 0 1-1 3-2 4-1 1-2 2-3 3-2 0-3 1-5 1m2-55c-5 0-9 1-13 2-4 2-7 3-10 6-3 3-5 6-7 11-1 4-2 9-2 14 0 6 1 11 2 15 2 4 4 8 6 11 3 3 6 5 10 6 3 2 7 2 12 2 4 0 8 0 11-2 4-1 7-3 9-5 2-3 4-6 6-10 1-3 2-7 2-12l0-9-40 0c0-2 0-4 1-6 1-2 2-4 3-5 1-2 3-3 5-4 2 0 4-1 6-1 2 0 4 0 6 1 2 0 3 0 5 1 2 0 3 1 5 1 2 1 3 2 5 2l0-13c-2-1-3-2-5-2-1-1-3-1-5-2-1 0-3 0-5-1-2 0-5 0-7 0m-102 66l20 0 10-36c1-2 1-5 1-7 1-2 1-4 1-6l0 0c0 1 0 2 1 3 0 1 0 2 0 3 0 1 0 3 1 4 0 1 0 2 0 3l11 36 19 0-25-73c-3-7-6-12-10-15-4-4-10-5-16-5-2 0-4 0-5 0-1 0-3 0-4 1l0 14c1 0 2-1 3-1 1 0 3 0 4 0 2 0 4 0 5 1 1 0 2 1 3 2 1 1 2 2 3 3 0 1 1 3 2 4l1 4-25 65m382 89c-21 0-40 3-58 9-17 6-31 15-43 27-13 12-22 28-28 47-7 19-10 42-10 69 0 30 3 55 10 74 7 20 16 36 28 49 12 11 27 20 44 25 17 5 36 8 57 8 15 0 30-2 46-6 15-3 29-9 42-15l-23-62c-12 5-23 9-34 13-11 3-21 5-31 5-20 0-34-8-43-23-9-15-13-37-13-67 0-30 4-52 13-66 9-14 23-21 42-21 15 0 29 2 42 5 13 4 25 10 38 16l0-68c-6-3-12-6-19-8-6-3-12-5-18-6-7-2-13-3-20-4-7-1-14-1-22-1m-293 379c0 8 1 14 4 19 2 5 5 9 9 12 4 3 9 6 14 7 6 1 11 2 17 2 6 0 12-1 17-2 6-1 10-4 14-7 4-3 7-7 10-12 2-5 3-11 3-19 0-7-1-14-3-19-3-5-6-9-10-12-4-3-8-5-14-7-5-1-11-2-17-2-6 0-11 1-17 2-5 2-10 4-14 7-4 3-7 7-9 12-3 5-4 12-4 19m85-374l-81 0 0 297 81 0 0-297m-256-5c-9 0-18 1-26 3-8 2-14 5-21 9-6 3-11 7-16 12-4 4-8 9-12 14l-4 0c1-6 1-12 2-18 0-4 1-9 1-14 1-5 1-8 1-11l0-121-81 0 0 428 66 0 11-38 4 0c4 6 8 12 13 17 5 5 10 10 16 14 7 4 14 7 22 9 8 3 17 4 26 4 16 0 30-3 42-10 13-6 24-16 33-29 9-13 16-29 21-48 5-19 7-42 7-67 0-25-2-47-7-67-6-19-13-35-22-48-9-13-21-23-33-29-13-7-27-10-43-10m-25 243c-9 0-17-2-23-5-6-3-11-8-15-15-4-6-7-14-9-25-2-10-3-21-3-34l0-9c0-15 1-27 2-38 2-12 5-21 9-29 4-7 9-13 15-17 7-3 15-5 25-5 16 0 27 7 35 22 7 16 11 38 11 67 0 30-4 52-11 66-8 15-20 22-36 22m328 347c0-30 4-52 13-67 8-15 22-22 40-22 19 0 32 7 41 22 8 15 12 37 12 67 0 29-4 51-12 66-9 15-22 22-41 22-19 0-32-7-41-22-8-15-12-37-12-66m189 0c0-25-3-47-10-66-6-19-15-35-27-48-11-14-26-24-43-31-17-6-36-10-57-10-19 0-37 4-54 10-16 7-31 17-43 31-12 13-21 29-28 48-6 19-10 41-10 66 0 24 3 46 10 65 6 20 15 36 27 49 12 13 26 23 43 29 17 7 36 10 57 10 20 0 38-3 54-10 17-6 31-16 43-29 12-13 21-29 28-49 7-19 10-41 10-65m-340-149l-81 0 0 173c0 22-3 38-10 48-6 11-16 17-30 17-11 0-20-3-27-7-7-4-13-10-17-19-4-8-7-18-9-31-2-12-2-26-2-42l0-139-82 0 0 297 62 0 11-38 5 0c4 7 9 14 15 19 6 6 13 10 20 14 8 4 15 6 24 8 8 1 16 2 25 2 14 0 27-2 39-6 12-4 22-10 31-19 8-9 15-21 19-34 5-14 7-30 7-50l0-193" horiz-adv-x="1024" />
<glyph glyph-name="info" unicode="&#xe81b;" d="m495 834c-100 1-182-27-233-57l-9-5 2-10 45-147 5-17 15 10c34 23 85 37 128 37 1 0 1 0 1 0 31-1 52-9 65-20 13-12 19-27 19-47 0-40-32-83-76-134 0 0 0 0 0 0-63-74-87-149-84-221l0-1 0 0 3-35 1-12 12 0 179-1 14 0 0 13 0 25 0 0 0 0c-2 58 18 107 66 159l0 0 0 0c51 58 121 128 121 239 0 59-22 115-68 157-45 41-114 67-206 67z m0-26c87 0 149-24 189-61 40-36 59-85 59-137 0-99-62-162-114-221-1 0-1 0-1 0-50-56-74-113-73-177l0 0 0-12-154 1-2 23c-2 66 18 133 78 203l0 0c44 51 82 98 83 151 0 26-10 50-29 67-19 16-47 25-82 26l0 0 0 0c-43 0-91-11-129-32l-36 121c47 25 122 48 211 48z m-22-673c-77 1-134-57-135-136 0-77 56-137 134-137l0 0 0 0 2 0c0 0 0 0 0 0 79-1 134 60 134 136l0 0 0 0c0 40-14 74-37 99-24 24-58 38-98 38z m0-26c34 0 60-11 79-31 18-19 29-46 30-80 0 0 0 0 0 0 0-65-41-110-108-110l0 0 0 0-2 0c0 0 0 0 0 0-65 0-108 46-107 111 0 67 43 110 108 110z" horiz-adv-x="1024" />
<glyph glyph-name="logo" unicode="&#xe81c;" d="m27 755c62 0 124 0 187 0 0-127-10-254-10-381 93 127 186 254 278 381 76 0 152 0 227 0-104-141-254-246-337-403 80-159 230-265 329-411-74 0-147 0-221 0-72 104-121 229-225 306-40 15-41-61-47-89-6-72-2-145-4-217-59 0-119 0-178 0 0 271 1 542 1 814z m435-403c105 145 247 258 353 403 61 1 122 1 183 0-105-140-261-237-351-389-7-47 48-91 74-130 88-102 199-183 276-295-65 0-129-1-194-1-103 146-238 267-341 412z" horiz-adv-x="1024" />
<glyph glyph-name="new" unicode="&#xe81d;" d="m845 684c-48 0-85-10-109-33-24-23-34-60-34-109 0-54 19-128 56-225 11-29 17-45 22-54l0 0 0 0c13-21 33-34 56-34 0 0 0 0 0 0 25 0 46 11 59 31l0 0 0 0c6 10 12 27 22 57l0 0c19 59 34 107 43 143 10 36 15 60 15 76 0 47-10 84-32 110-23 26-56 38-98 38z m0-26c37 0 61-10 78-29 17-19 26-50 26-93 0-9-5-34-14-69-10-36-24-83-43-141 0 0 0 0 0 0-10-30-18-50-19-52-9-13-19-19-37-19l0 0c-14 0-23 6-33 21 0 0 0 0 0 0-2 3-10 22-20 50l0 0c-37 96-55 169-55 216 0 45 10 74 26 90 17 16 47 26 91 26z m-5-450c-27 0-51-10-70-29l0 0c-19-18-29-43-29-69 0-27 10-51 29-70l0 0c19-18 43-28 70-28 26 0 50 10 69 28l0 0c20 19 30 43 30 70 0 26-10 50-29 69l0 0-1 0c-19 19-43 29-69 29z m0-26c20 0 36-7 51-22 0 0 0 0 0 0 15-14 21-30 21-50 0-20-6-36-21-51-15-14-31-21-51-21-21 0-37 7-52 21l0 0c-14 15-21 31-21 51 0 20 7 36 21 50 0 0 0 0 0 0 15 15 31 22 52 22z m-762 652c-18 0-29-15-29-32l0-907c0-16 12-32 29-32l0 0c0 0 185 0 371-1 93 0 186 0 256 0 35 0 64 0 85 0 10 0 18 0 24 0 3 0 5 0 7 0 0 0 1 0 2 0 0 0 0 0 0 0 1 0 0 0 2 0 0 0 0 0 0 0 22 3 34 23 34 43l0 0 0 0c0 1 1 85 1 109-7-1-13-2-20-2-2 0-5 0-7 0 0-23 0-106 0-107l0 0c0-8-4-16-12-17 0 0 0 0-1 0-1 0-3 0-6 0-6 0-14 0-24 0-21 0-50 0-85 0-70 0-163 0-256 1-186 0-371 1-371 1l0 0c-1 0-3 1-3 5l0 907c0 5 3 6 3 6l755 0c0 0 2-1 2-6 0 0 0 0 0 0 0 0 0-91 0-118 3 0 7 0 10 0 6 0 11 0 16 0 0 27 0 118 0 118l0 0c0 17-11 32-28 32z m782-601c-7-3-16-4-24-4 0 0 0 0 0 0-1 0-2 0-2 0 0-10 0-12 0-21 2 0 4 0 6 0 7 0 14-1 20-2 0 12 0 14 0 27z m-648-201c0-14-10-24-24-24l-25 0c-13 0-24 10-24 24l0 28c0 13 11 24 24 24l25 0c14 0 24-11 24-24z m0 200c0-13-10-24-24-24l-25 0c-13 0-24 11-24 24l0 28c0 14 11 25 24 25l25 0c14 0 24-11 24-25z m0 201c0-13-10-24-24-24l-25 0c-13 0-24 11-24 24l0 28c0 14 11 25 24 25l25 0c14 0 24-11 24-25z m0 201c0-13-10-24-24-24l-25 0c-13 0-24 11-24 24l0 28c0 14 11 24 24 24l25 0c14 0 24-11 24-24z" horiz-adv-x="1024" />
<glyph glyph-name="open" unicode="&#xe81e;" d="m250 457c-6 0-12-2-18-5-5-2-10-7-13-14l-187-495c-2-7 0-16 5-21 5-5 12-7 19-7l0 0 723-3c0 0 0 0 0 0 7-1 13 1 18 4 5 3 11 7 13 14 0 0 0 0 0 0l187 495c3 8 0 17-5 22-5 5-12 7-18 7l-1 0-723 3z m0-26l0 0 720-4-184-487 0 0 0 0c0 0 0 0 0 0 0 1 0 0-1-1-2-1-4-1-6-1l0 0 0 0-719 3 184 488c-1-1-1-1 1 0 1 1 4 2 5 2z m47 353c-10 0-19 0-28 0-50-1-93-4-93-4l-2 0-1 0c-21-5-33-22-36-38l-28-90-54 0c-15 0-29-12-29-28l0-685c0-16 14-27 29-27l1 0 1 0 18 3-19 0 0 0c-7 0-14 2-19 7-5 5-7 14-5 21l20 52 0 629c0 0 0 2 3 2l64 0 10 0 3 9 30 99 0 1 0 1c2 8 6 15 17 18 2 0 43 3 90 4 12 0 25 0 37 0 12 0 24 0 35-1 22 0 40-2 49-5-1 0 2-1 6-4 3-4 8-8 13-14 11-12 24-27 36-43 25-30 47-60 47-60l4-5 7 0 318 0c3 0 3-2 3-2l0-170 26 0 0 170c0 16-14 28-29 28l-312 0c-5 7-22 29-43 56-13 15-26 31-37 43-6 7-11 12-16 16-5 5-8 8-15 10l0 0c-13 4-33 6-56 7-11 0-23 0-36 0-3 0-6 0-9 0z" horiz-adv-x="1024" />
<glyph glyph-name="paste" unicode="&#xe81f;" d="m370 834c-32 0-57-26-57-57 0-31 25-57 57-57l296 0c31 0 57 26 57 57 0 31-26 57-57 57z m0-26l296 0c17 0 31-14 31-31 0-17-14-31-31-31l-296 0c-17 0-31 14-31 31 0 17 14 31 31 31z m-68-669l448 0 0-22-448 0z m0 117l448 0 0-22-448 0z m0 117l448 0 0-22-448 0z m0 117l448 0 0-22-448 0z m0 117l448 0 0-22-448 0z m-118 184c-16 0-27-15-27-30l0-804c0-15 11-30 27-30l556 0 5 0 4 4 124 125 4 4 0 5 0 696c0 15-11 30-27 30l-128 0c1-5 1-9 1-14 0-4 0-9-1-13l127 0c0 0 1 0 1-3l0-690-116-118-550 0c1 0-1 1-1 4l0 804c0 3 2 3 1 3l130 0c-1 4-1 9-1 13 0 5 0 9 1 14z m-103 16c-17 0-31-15-31-32l0-882c0-17 14-31 31-31l862 0c17 0 31 14 31 31l0 882c0 17-14 32-31 32l-228 0c5-8 8-17 8-26l220 0c3 0 5-3 5-6l0-882c0-3-2-5-5-5l-862 0c-3 0-5 2-5 5l0 882c0 3 2 6 5 6l232 0c0 9 3 18 8 26z" horiz-adv-x="1024" />
<glyph glyph-name="period-table" unicode="&#xe820;" d="m962 173l-77 0 0-253c0-14-3-25-9-32-7-7-15-11-26-11-10 0-19 4-25 11-7 7-10 18-10 32l0 253-77 0c-12 0-21 3-27 8-6 5-9 12-9 21 0 9 3 16 9 21 7 6 15 8 27 8l224 0c12 0 22-2 27-8 6-5 9-12 9-21 0-9-3-16-9-21-6-5-15-8-27-8z m-415-154l-65 0 0-99c0-14-3-25-10-32-7-7-15-11-25-11-11 0-19 4-26 11-6 7-10 18-10 32l0 268c0 16 4 27 11 33 7 7 19 10 34 10l91 0c26 0 47-2 61-6 15-4 27-10 37-20 11-9 19-20 24-33 5-14 8-28 8-45 0-36-11-63-33-81-22-18-54-27-97-27z m-17 159l-48 0 0-106 48 0c16 0 30 2 41 5 11 4 20 9 26 17 6 8 9 19 9 31 0 16-5 28-14 38-10 10-31 15-62 15z m3 641c0-158 0-315 0-473 89 0 179 0 270 0 0 158 0 315 0 473-91 0-181 0-270 0z m26-27c72 0 145 0 217 0 0-139 0-279 0-419-72 0-145 0-217 0 0 140 0 280 0 419z m-533 27c0-83 0-166 0-250 259 0 518 0 777 0 0 84 0 167 0 250-259 0-518 0-777 0z m26-27c241 0 483 0 724 0 0-65 0-131 0-196-241 0-483 0-724 0 0 65 0 131 0 196z m-26 27c0-259 0-518 0-777 90 0 180 0 270 0 0 259 0 518 0 777-90 0-180 0-270 0z m26-27c73 0 145 0 217 0 0-241 0-482 0-723-72 0-144 0-217 0 0 241 0 482 0 723z m-26 27c0-158 0-315 0-473 259 0 518 0 777 0 0 158 0 315 0 473-259 0-518 0-777 0z m26-27c241 0 483 0 724 0 0-139 0-279 0-419-241 0-483 0-724 0 0 140 0 280 0 419z" horiz-adv-x="1024" />
<glyph glyph-name="reaction-arrow" unicode="&#xe821;" d="m998 348l-175 130 43-115-840 0 0-33 839 0-42-112z" horiz-adv-x="1024" />
<glyph glyph-name="reaction-automap" unicode="&#xe822;" d="m649-30c0-5-1-10-1-14-1-5-2-10-3-14-2-4-4-8-6-12-2-4-5-8-8-12l-14 0c3 4 5 8 7 12 2 4 4 8 5 13 1 4 3 9 3 13 1 5 1 9 1 14 0 9-1 19-4 27-3 9-7 18-12 25l14 0c3-4 6-7 8-11 2-5 4-9 6-13 1-5 2-9 3-14 0-5 1-9 1-14m-45-19l1-1c0-2-1-5-2-7 0-2-1-5-2-7-1-3-2-5-3-7-1-3-2-5-3-7l-13 0c1 2 1 5 2 7 0 3 1 5 2 8 0 3 1 5 1 7 0 3 1 5 1 7l16 0m-19 42c0 2 1 4 1 5 1 1 1 2 2 3 1 1 2 2 4 2 1 0 2 0 4 0 1 0 2 0 3 0 2 0 3-1 4-2 1-1 1-2 2-3 0-1 1-3 1-5 0-1-1-3-1-4-1-1-1-2-2-3-1-1-2-1-4-2-1 0-2 0-3 0-2 0-3 0-4 0-2 1-3 1-4 2-1 1-1 2-2 3 0 1-1 3-1 4m-20-43c2 0 3 0 5 1 1 0 3 1 5 1l0-13c-2-1-4-2-6-2-3-1-5-1-8-1-3 0-6 0-8 1-3 1-5 2-7 4-1 1-3 3-4 6-1 3-1 6-1 11l0 31-9 0 0 7 10 6 5 14 11 0 0-14 16 0 0-13-16 0 0-31c0-3 1-5 2-6 1-1 3-2 5-2m-69 41c-3 0-6-1-8-4-2-2-3-5-4-10l23 0c0 2 0 4-1 6 0 1-1 3-2 4-1 1-2 2-3 3-2 0-3 1-5 1m2-55c-5 0-9 1-13 2-4 2-7 3-10 6-3 3-5 6-7 11-1 4-2 9-2 14 0 6 1 11 2 15 2 4 4 8 6 11 3 3 6 5 10 6 3 2 7 2 12 2 4 0 8 0 11-2 4-1 7-3 9-5 2-3 4-6 6-10 1-3 2-7 2-12l0-9-40 0c0-2 0-4 1-6 1-2 2-4 3-5 1-2 3-3 5-4 2 0 4-1 6-1 2 0 4 0 6 1 2 0 3 0 5 1 2 0 3 1 5 1 2 1 3 2 5 2l0-13c-2-1-3-2-5-2-1-1-3-1-5-2-1 0-3 0-5-1-2 0-5 0-7 0m-102 66l20 0 10-36c1-2 1-5 1-7 1-2 1-4 1-6l0 0c0 1 0 2 1 3 0 1 0 2 0 3 0 1 0 3 1 4 0 1 0 2 0 3l11 36 19 0-25-73c-3-7-6-12-10-15-4-4-10-5-16-5-2 0-4 0-5 0-1 0-3 0-4 1l0 14c1 0 2-1 3-1 1 0 3 0 4 0 2 0 4 0 5 1 1 0 2 1 3 2 1 1 2 2 3 3 0 1 1 3 2 4l1 4-25 65m382 89c-21 0-40 3-58 9-17 6-31 15-43 27-13 12-22 28-28 47-7 19-10 42-10 69 0 30 3 55 10 74 7 20 16 36 28 49 12 11 27 20 44 25 17 5 36 8 57 8 15 0 30-2 46-6 15-3 29-9 42-15l-23-62c-12 5-23 9-34 13-11 3-21 5-31 5-20 0-34-8-43-23-9-15-13-37-13-67 0-30 4-52 13-66 9-14 23-21 42-21 15 0 29 2 42 5 13 4 25 10 38 16l0-68c-6-3-12-6-19-8-6-3-12-5-18-6-7-2-13-3-20-4-7-1-14-1-22-1m-293 379c0 8 1 14 4 19 2 5 5 9 9 12 4 3 9 6 14 7 6 1 11 2 17 2 6 0 12-1 17-2 6-1 10-4 14-7 4-3 7-7 10-12 2-5 3-11 3-19 0-7-1-14-3-19-3-5-6-9-10-12-4-3-8-5-14-7-5-1-11-2-17-2-6 0-11 1-17 2-5 2-10 4-14 7-4 3-7 7-9 12-3 5-4 12-4 19m85-374l-81 0 0 297 81 0 0-297m-256-5c-9 0-18 1-26 3-8 2-14 5-21 9-6 3-11 7-16 12-4 4-8 9-12 14l-4 0c1-6 1-12 2-18 0-4 1-9 1-14 1-5 1-8 1-11l0-121-81 0 0 428 66 0 11-38 4 0c4 6 8 12 13 17 5 5 10 10 16 14 7 4 14 7 22 9 8 3 17 4 26 4 16 0 30-3 42-10 13-6 24-16 33-29 9-13 16-29 21-48 5-19 7-42 7-67 0-25-2-47-7-67-6-19-13-35-22-48-9-13-21-23-33-29-13-7-27-10-43-10m-25 243c-9 0-17-2-23-5-6-3-11-8-15-15-4-6-7-14-9-25-2-10-3-21-3-34l0-9c0-15 1-27 2-38 2-12 5-21 9-29 4-7 9-13 15-17 7-3 15-5 25-5 16 0 27 7 35 22 7 16 11 38 11 67 0 30-4 52-11 66-8 15-20 22-36 22m328 347c0-30 4-52 13-67 8-15 22-22 40-22 19 0 32 7 41 22 8 15 12 37 12 67 0 29-4 51-12 66-9 15-22 22-41 22-19 0-32-7-41-22-8-15-12-37-12-66m189 0c0-25-3-47-10-66-6-19-15-35-27-48-11-14-26-24-43-31-17-6-36-10-57-10-19 0-37 4-54 10-16 7-31 17-43 31-12 13-21 29-28 48-6 19-10 41-10 66 0 24 3 46 10 65 6 20 15 36 27 49 12 13 26 23 43 29 17 7 36 10 57 10 20 0 38-3 54-10 17-6 31-16 43-29 12-13 21-29 28-49 7-19 10-41 10-65m-340-149l-81 0 0 173c0 22-3 38-10 48-6 11-16 17-30 17-11 0-20-3-27-7-7-4-13-10-17-19-4-8-7-18-9-31-2-12-2-26-2-42l0-139-82 0 0 297 62 0 11-38 5 0c4 7 9 14 15 19 6 6 13 10 20 14 8 4 15 6 24 8 8 1 16 2 25 2 14 0 27-2 39-6 12-4 22-10 31-19 8-9 15-21 19-34 5-14 7-30 7-50l0-193" horiz-adv-x="1024" />
<glyph glyph-name="reaction-map" unicode="&#xe823;" d="m649-30c0-5-1-10-1-14-1-5-2-10-3-14-2-4-4-8-6-12-2-4-5-8-8-12l-14 0c3 4 5 8 7 12 2 4 4 8 5 13 1 4 3 9 3 13 1 5 1 9 1 14 0 9-1 19-4 27-3 9-7 18-12 25l14 0c3-4 6-7 8-11 2-5 4-9 6-13 1-5 2-9 3-14 0-5 1-9 1-14m-45-19l1-1c0-2-1-5-2-7 0-2-1-5-2-7-1-3-2-5-3-7-1-3-2-5-3-7l-13 0c1 2 1 5 2 7 0 3 1 5 2 8 0 3 1 5 1 7 0 3 1 5 1 7l16 0m-19 42c0 2 1 4 1 5 1 1 1 2 2 3 1 1 2 2 4 2 1 0 2 0 4 0 1 0 2 0 3 0 2 0 3-1 4-2 1-1 1-2 2-3 0-1 1-3 1-5 0-1-1-3-1-4-1-1-1-2-2-3-1-1-2-1-4-2-1 0-2 0-3 0-2 0-3 0-4 0-2 1-3 1-4 2-1 1-1 2-2 3 0 1-1 3-1 4m-20-43c2 0 3 0 5 1 1 0 3 1 5 1l0-13c-2-1-4-2-6-2-3-1-5-1-8-1-3 0-6 0-8 1-3 1-5 2-7 4-1 1-3 3-4 6-1 3-1 6-1 11l0 31-9 0 0 7 10 6 5 14 11 0 0-14 16 0 0-13-16 0 0-31c0-3 1-5 2-6 1-1 3-2 5-2m-69 41c-3 0-6-1-8-4-2-2-3-5-4-10l23 0c0 2 0 4-1 6 0 1-1 3-2 4-1 1-2 2-3 3-2 0-3 1-5 1m2-55c-5 0-9 1-13 2-4 2-7 3-10 6-3 3-5 6-7 11-1 4-2 9-2 14 0 6 1 11 2 15 2 4 4 8 6 11 3 3 6 5 10 6 3 2 7 2 12 2 4 0 8 0 11-2 4-1 7-3 9-5 2-3 4-6 6-10 1-3 2-7 2-12l0-9-40 0c0-2 0-4 1-6 1-2 2-4 3-5 1-2 3-3 5-4 2 0 4-1 6-1 2 0 4 0 6 1 2 0 3 0 5 1 2 0 3 1 5 1 2 1 3 2 5 2l0-13c-2-1-3-2-5-2-1-1-3-1-5-2-1 0-3 0-5-1-2 0-5 0-7 0m-102 66l20 0 10-36c1-2 1-5 1-7 1-2 1-4 1-6l0 0c0 1 0 2 1 3 0 1 0 2 0 3 0 1 0 3 1 4 0 1 0 2 0 3l11 36 19 0-25-73c-3-7-6-12-10-15-4-4-10-5-16-5-2 0-4 0-5 0-1 0-3 0-4 1l0 14c1 0 2-1 3-1 1 0 3 0 4 0 2 0 4 0 5 1 1 0 2 1 3 2 1 1 2 2 3 3 0 1 1 3 2 4l1 4-25 65m382 89c-21 0-40 3-58 9-17 6-31 15-43 27-13 12-22 28-28 47-7 19-10 42-10 69 0 30 3 55 10 74 7 20 16 36 28 49 12 11 27 20 44 25 17 5 36 8 57 8 15 0 30-2 46-6 15-3 29-9 42-15l-23-62c-12 5-23 9-34 13-11 3-21 5-31 5-20 0-34-8-43-23-9-15-13-37-13-67 0-30 4-52 13-66 9-14 23-21 42-21 15 0 29 2 42 5 13 4 25 10 38 16l0-68c-6-3-12-6-19-8-6-3-12-5-18-6-7-2-13-3-20-4-7-1-14-1-22-1m-293 379c0 8 1 14 4 19 2 5 5 9 9 12 4 3 9 6 14 7 6 1 11 2 17 2 6 0 12-1 17-2 6-1 10-4 14-7 4-3 7-7 10-12 2-5 3-11 3-19 0-7-1-14-3-19-3-5-6-9-10-12-4-3-8-5-14-7-5-1-11-2-17-2-6 0-11 1-17 2-5 2-10 4-14 7-4 3-7 7-9 12-3 5-4 12-4 19m85-374l-81 0 0 297 81 0 0-297m-256-5c-9 0-18 1-26 3-8 2-14 5-21 9-6 3-11 7-16 12-4 4-8 9-12 14l-4 0c1-6 1-12 2-18 0-4 1-9 1-14 1-5 1-8 1-11l0-121-81 0 0 428 66 0 11-38 4 0c4 6 8 12 13 17 5 5 10 10 16 14 7 4 14 7 22 9 8 3 17 4 26 4 16 0 30-3 42-10 13-6 24-16 33-29 9-13 16-29 21-48 5-19 7-42 7-67 0-25-2-47-7-67-6-19-13-35-22-48-9-13-21-23-33-29-13-7-27-10-43-10m-25 243c-9 0-17-2-23-5-6-3-11-8-15-15-4-6-7-14-9-25-2-10-3-21-3-34l0-9c0-15 1-27 2-38 2-12 5-21 9-29 4-7 9-13 15-17 7-3 15-5 25-5 16 0 27 7 35 22 7 16 11 38 11 67 0 30-4 52-11 66-8 15-20 22-36 22m328 347c0-30 4-52 13-67 8-15 22-22 40-22 19 0 32 7 41 22 8 15 12 37 12 67 0 29-4 51-12 66-9 15-22 22-41 22-19 0-32-7-41-22-8-15-12-37-12-66m189 0c0-25-3-47-10-66-6-19-15-35-27-48-11-14-26-24-43-31-17-6-36-10-57-10-19 0-37 4-54 10-16 7-31 17-43 31-12 13-21 29-28 48-6 19-10 41-10 66 0 24 3 46 10 65 6 20 15 36 27 49 12 13 26 23 43 29 17 7 36 10 57 10 20 0 38-3 54-10 17-6 31-16 43-29 12-13 21-29 28-49 7-19 10-41 10-65m-340-149l-81 0 0 173c0 22-3 38-10 48-6 11-16 17-30 17-11 0-20-3-27-7-7-4-13-10-17-19-4-8-7-18-9-31-2-12-2-26-2-42l0-139-82 0 0 297 62 0 11-38 5 0c4 7 9 14 15 19 6 6 13 10 20 14 8 4 15 6 24 8 8 1 16 2 25 2 14 0 27-2 39-6 12-4 22-10 31-19 8-9 15-21 19-34 5-14 7-30 7-50l0-193" horiz-adv-x="1024" />
<glyph glyph-name="reaction-plus" unicode="&#xe824;" d="m649-30c0-5-1-10-1-14-1-5-2-10-3-14-2-4-4-8-6-12-2-4-5-8-8-12l-14 0c3 4 5 8 7 12 2 4 4 8 5 13 1 4 3 9 3 13 1 5 1 9 1 14 0 9-1 19-4 27-3 9-7 18-12 25l14 0c3-4 6-7 8-11 2-5 4-9 6-13 1-5 2-9 3-14 0-5 1-9 1-14m-45-19l1-1c0-2-1-5-2-7 0-2-1-5-2-7-1-3-2-5-3-7-1-3-2-5-3-7l-13 0c1 2 1 5 2 7 0 3 1 5 2 8 0 3 1 5 1 7 0 3 1 5 1 7l16 0m-19 42c0 2 1 4 1 5 1 1 1 2 2 3 1 1 2 2 4 2 1 0 2 0 4 0 1 0 2 0 3 0 2 0 3-1 4-2 1-1 1-2 2-3 0-1 1-3 1-5 0-1-1-3-1-4-1-1-1-2-2-3-1-1-2-1-4-2-1 0-2 0-3 0-2 0-3 0-4 0-2 1-3 1-4 2-1 1-1 2-2 3 0 1-1 3-1 4m-20-43c2 0 3 0 5 1 1 0 3 1 5 1l0-13c-2-1-4-2-6-2-3-1-5-1-8-1-3 0-6 0-8 1-3 1-5 2-7 4-1 1-3 3-4 6-1 3-1 6-1 11l0 31-9 0 0 7 10 6 5 14 11 0 0-14 16 0 0-13-16 0 0-31c0-3 1-5 2-6 1-1 3-2 5-2m-69 41c-3 0-6-1-8-4-2-2-3-5-4-10l23 0c0 2 0 4-1 6 0 1-1 3-2 4-1 1-2 2-3 3-2 0-3 1-5 1m2-55c-5 0-9 1-13 2-4 2-7 3-10 6-3 3-5 6-7 11-1 4-2 9-2 14 0 6 1 11 2 15 2 4 4 8 6 11 3 3 6 5 10 6 3 2 7 2 12 2 4 0 8 0 11-2 4-1 7-3 9-5 2-3 4-6 6-10 1-3 2-7 2-12l0-9-40 0c0-2 0-4 1-6 1-2 2-4 3-5 1-2 3-3 5-4 2 0 4-1 6-1 2 0 4 0 6 1 2 0 3 0 5 1 2 0 3 1 5 1 2 1 3 2 5 2l0-13c-2-1-3-2-5-2-1-1-3-1-5-2-1 0-3 0-5-1-2 0-5 0-7 0m-102 66l20 0 10-36c1-2 1-5 1-7 1-2 1-4 1-6l0 0c0 1 0 2 1 3 0 1 0 2 0 3 0 1 0 3 1 4 0 1 0 2 0 3l11 36 19 0-25-73c-3-7-6-12-10-15-4-4-10-5-16-5-2 0-4 0-5 0-1 0-3 0-4 1l0 14c1 0 2-1 3-1 1 0 3 0 4 0 2 0 4 0 5 1 1 0 2 1 3 2 1 1 2 2 3 3 0 1 1 3 2 4l1 4-25 65m382 89c-21 0-40 3-58 9-17 6-31 15-43 27-13 12-22 28-28 47-7 19-10 42-10 69 0 30 3 55 10 74 7 20 16 36 28 49 12 11 27 20 44 25 17 5 36 8 57 8 15 0 30-2 46-6 15-3 29-9 42-15l-23-62c-12 5-23 9-34 13-11 3-21 5-31 5-20 0-34-8-43-23-9-15-13-37-13-67 0-30 4-52 13-66 9-14 23-21 42-21 15 0 29 2 42 5 13 4 25 10 38 16l0-68c-6-3-12-6-19-8-6-3-12-5-18-6-7-2-13-3-20-4-7-1-14-1-22-1m-293 379c0 8 1 14 4 19 2 5 5 9 9 12 4 3 9 6 14 7 6 1 11 2 17 2 6 0 12-1 17-2 6-1 10-4 14-7 4-3 7-7 10-12 2-5 3-11 3-19 0-7-1-14-3-19-3-5-6-9-10-12-4-3-8-5-14-7-5-1-11-2-17-2-6 0-11 1-17 2-5 2-10 4-14 7-4 3-7 7-9 12-3 5-4 12-4 19m85-374l-81 0 0 297 81 0 0-297m-256-5c-9 0-18 1-26 3-8 2-14 5-21 9-6 3-11 7-16 12-4 4-8 9-12 14l-4 0c1-6 1-12 2-18 0-4 1-9 1-14 1-5 1-8 1-11l0-121-81 0 0 428 66 0 11-38 4 0c4 6 8 12 13 17 5 5 10 10 16 14 7 4 14 7 22 9 8 3 17 4 26 4 16 0 30-3 42-10 13-6 24-16 33-29 9-13 16-29 21-48 5-19 7-42 7-67 0-25-2-47-7-67-6-19-13-35-22-48-9-13-21-23-33-29-13-7-27-10-43-10m-25 243c-9 0-17-2-23-5-6-3-11-8-15-15-4-6-7-14-9-25-2-10-3-21-3-34l0-9c0-15 1-27 2-38 2-12 5-21 9-29 4-7 9-13 15-17 7-3 15-5 25-5 16 0 27 7 35 22 7 16 11 38 11 67 0 30-4 52-11 66-8 15-20 22-36 22m328 347c0-30 4-52 13-67 8-15 22-22 40-22 19 0 32 7 41 22 8 15 12 37 12 67 0 29-4 51-12 66-9 15-22 22-41 22-19 0-32-7-41-22-8-15-12-37-12-66m189 0c0-25-3-47-10-66-6-19-15-35-27-48-11-14-26-24-43-31-17-6-36-10-57-10-19 0-37 4-54 10-16 7-31 17-43 31-12 13-21 29-28 48-6 19-10 41-10 66 0 24 3 46 10 65 6 20 15 36 27 49 12 13 26 23 43 29 17 7 36 10 57 10 20 0 38-3 54-10 17-6 31-16 43-29 12-13 21-29 28-49 7-19 10-41 10-65m-340-149l-81 0 0 173c0 22-3 38-10 48-6 11-16 17-30 17-11 0-20-3-27-7-7-4-13-10-17-19-4-8-7-18-9-31-2-12-2-26-2-42l0-139-82 0 0 297 62 0 11-38 5 0c4 7 9 14 15 19 6 6 13 10 20 14 8 4 15 6 24 8 8 1 16 2 25 2 14 0 27-2 39-6 12-4 22-10 31-19 8-9 15-21 19-34 5-14 7-30 7-50l0-193" horiz-adv-x="1024" />
<glyph glyph-name="reaction-unmap" unicode="&#xe825;" d="m649-30c0-5-1-10-1-14-1-5-2-10-3-14-2-4-4-8-6-12-2-4-5-8-8-12l-14 0c3 4 5 8 7 12 2 4 4 8 5 13 1 4 3 9 3 13 1 5 1 9 1 14 0 9-1 19-4 27-3 9-7 18-12 25l14 0c3-4 6-7 8-11 2-5 4-9 6-13 1-5 2-9 3-14 0-5 1-9 1-14m-45-19l1-1c0-2-1-5-2-7 0-2-1-5-2-7-1-3-2-5-3-7-1-3-2-5-3-7l-13 0c1 2 1 5 2 7 0 3 1 5 2 8 0 3 1 5 1 7 0 3 1 5 1 7l16 0m-19 42c0 2 1 4 1 5 1 1 1 2 2 3 1 1 2 2 4 2 1 0 2 0 4 0 1 0 2 0 3 0 2 0 3-1 4-2 1-1 1-2 2-3 0-1 1-3 1-5 0-1-1-3-1-4-1-1-1-2-2-3-1-1-2-1-4-2-1 0-2 0-3 0-2 0-3 0-4 0-2 1-3 1-4 2-1 1-1 2-2 3 0 1-1 3-1 4m-20-43c2 0 3 0 5 1 1 0 3 1 5 1l0-13c-2-1-4-2-6-2-3-1-5-1-8-1-3 0-6 0-8 1-3 1-5 2-7 4-1 1-3 3-4 6-1 3-1 6-1 11l0 31-9 0 0 7 10 6 5 14 11 0 0-14 16 0 0-13-16 0 0-31c0-3 1-5 2-6 1-1 3-2 5-2m-69 41c-3 0-6-1-8-4-2-2-3-5-4-10l23 0c0 2 0 4-1 6 0 1-1 3-2 4-1 1-2 2-3 3-2 0-3 1-5 1m2-55c-5 0-9 1-13 2-4 2-7 3-10 6-3 3-5 6-7 11-1 4-2 9-2 14 0 6 1 11 2 15 2 4 4 8 6 11 3 3 6 5 10 6 3 2 7 2 12 2 4 0 8 0 11-2 4-1 7-3 9-5 2-3 4-6 6-10 1-3 2-7 2-12l0-9-40 0c0-2 0-4 1-6 1-2 2-4 3-5 1-2 3-3 5-4 2 0 4-1 6-1 2 0 4 0 6 1 2 0 3 0 5 1 2 0 3 1 5 1 2 1 3 2 5 2l0-13c-2-1-3-2-5-2-1-1-3-1-5-2-1 0-3 0-5-1-2 0-5 0-7 0m-102 66l20 0 10-36c1-2 1-5 1-7 1-2 1-4 1-6l0 0c0 1 0 2 1 3 0 1 0 2 0 3 0 1 0 3 1 4 0 1 0 2 0 3l11 36 19 0-25-73c-3-7-6-12-10-15-4-4-10-5-16-5-2 0-4 0-5 0-1 0-3 0-4 1l0 14c1 0 2-1 3-1 1 0 3 0 4 0 2 0 4 0 5 1 1 0 2 1 3 2 1 1 2 2 3 3 0 1 1 3 2 4l1 4-25 65m382 89c-21 0-40 3-58 9-17 6-31 15-43 27-13 12-22 28-28 47-7 19-10 42-10 69 0 30 3 55 10 74 7 20 16 36 28 49 12 11 27 20 44 25 17 5 36 8 57 8 15 0 30-2 46-6 15-3 29-9 42-15l-23-62c-12 5-23 9-34 13-11 3-21 5-31 5-20 0-34-8-43-23-9-15-13-37-13-67 0-30 4-52 13-66 9-14 23-21 42-21 15 0 29 2 42 5 13 4 25 10 38 16l0-68c-6-3-12-6-19-8-6-3-12-5-18-6-7-2-13-3-20-4-7-1-14-1-22-1m-293 379c0 8 1 14 4 19 2 5 5 9 9 12 4 3 9 6 14 7 6 1 11 2 17 2 6 0 12-1 17-2 6-1 10-4 14-7 4-3 7-7 10-12 2-5 3-11 3-19 0-7-1-14-3-19-3-5-6-9-10-12-4-3-8-5-14-7-5-1-11-2-17-2-6 0-11 1-17 2-5 2-10 4-14 7-4 3-7 7-9 12-3 5-4 12-4 19m85-374l-81 0 0 297 81 0 0-297m-256-5c-9 0-18 1-26 3-8 2-14 5-21 9-6 3-11 7-16 12-4 4-8 9-12 14l-4 0c1-6 1-12 2-18 0-4 1-9 1-14 1-5 1-8 1-11l0-121-81 0 0 428 66 0 11-38 4 0c4 6 8 12 13 17 5 5 10 10 16 14 7 4 14 7 22 9 8 3 17 4 26 4 16 0 30-3 42-10 13-6 24-16 33-29 9-13 16-29 21-48 5-19 7-42 7-67 0-25-2-47-7-67-6-19-13-35-22-48-9-13-21-23-33-29-13-7-27-10-43-10m-25 243c-9 0-17-2-23-5-6-3-11-8-15-15-4-6-7-14-9-25-2-10-3-21-3-34l0-9c0-15 1-27 2-38 2-12 5-21 9-29 4-7 9-13 15-17 7-3 15-5 25-5 16 0 27 7 35 22 7 16 11 38 11 67 0 30-4 52-11 66-8 15-20 22-36 22m328 347c0-30 4-52 13-67 8-15 22-22 40-22 19 0 32 7 41 22 8 15 12 37 12 67 0 29-4 51-12 66-9 15-22 22-41 22-19 0-32-7-41-22-8-15-12-37-12-66m189 0c0-25-3-47-10-66-6-19-15-35-27-48-11-14-26-24-43-31-17-6-36-10-57-10-19 0-37 4-54 10-16 7-31 17-43 31-12 13-21 29-28 48-6 19-10 41-10 66 0 24 3 46 10 65 6 20 15 36 27 49 12 13 26 23 43 29 17 7 36 10 57 10 20 0 38-3 54-10 17-6 31-16 43-29 12-13 21-29 28-49 7-19 10-41 10-65m-340-149l-81 0 0 173c0 22-3 38-10 48-6 11-16 17-30 17-11 0-20-3-27-7-7-4-13-10-17-19-4-8-7-18-9-31-2-12-2-26-2-42l0-139-82 0 0 297 62 0 11-38 5 0c4 7 9 14 15 19 6 6 13 10 20 14 8 4 15 6 24 8 8 1 16 2 25 2 14 0 27-2 39-6 12-4 22-10 31-19 8-9 15-21 19-34 5-14 7-30 7-50l0-193" horiz-adv-x="1024" />
<glyph glyph-name="redo" unicode="&#xe826;" d="m529 672c-44 3-87-1-130-13-171-50-319-233-371-616-1-2-2-3-2-5l-10-68 35 60c116 205 226 295 319 315 92 20 170-29 228-113 0-1-1-4-3-9-5-8-14-22-27-37-25-32-63-74-100-125l-15-22 27 0c136 0 372 5 506 7l13 2 0 13c0 0-3 382-3 517l0 32-23-23c-31-31-71-67-104-99-90 103-214 174-340 184z m-2-26c123-10 245-81 332-184l8-12 10 12c27 27 62 58 92 87 1-149 3-459 4-477-128-2-333-6-467-6 30 39 61 77 82 103 13 16 23 29 30 41 3 6 5 12 6 18 1 6-1 13-5 19 0 0-1-1-1 0-61 89-149 146-253 124-93-19-195-112-299-277 57 335 192 497 341 540 40 12 80 15 120 12z" horiz-adv-x="1024" />
<glyph glyph-name="rgroup-attpoints" unicode="&#xe827;" d="m827 812l-16-72 0-145 16-74z m-112-26l0-1 16-25 0 15z m234 0l-10-7 0-10z m-106-2l0-228 12 55 4-3 0 120-4-2z m80-15l-16-10 0-39 16 25z m-176-4l0-30 16-25 0 45z m144-17l-16-10 0-140 16-10 0 53-2 3 2 1 0 47-2 0 2 3z m-112-4l0-151 16 10 0 131z m-16-54l-16-3 0-36 16-4z m144-2l0-40 16 4 0 33z m-176-5l-16-3 0-22 16-4z m208-2l0-26 16 4 0 19z m-240-5l-16-3 0-8 16-4z m272-2l0-12 16 4 0 4z m-304-5l-2 0 2 0z m96-41l-16-25 0-30 16 10z m144-12l0-38 16-11 0 24z m-176-38l-16-24 0-2 16 10z m208-12l0-9 9-6z m-531-152l58-61-439-443 49-48 437 441 59-62 123 300z" horiz-adv-x="1024" />
<glyph glyph-name="rgroup-fragment" unicode="&#xe828;" d="m649-30c0-5-1-10-1-14-1-5-2-10-3-14-2-4-4-8-6-12-2-4-5-8-8-12l-14 0c3 4 5 8 7 12 2 4 4 8 5 13 1 4 3 9 3 13 1 5 1 9 1 14 0 9-1 19-4 27-3 9-7 18-12 25l14 0c3-4 6-7 8-11 2-5 4-9 6-13 1-5 2-9 3-14 0-5 1-9 1-14m-45-19l1-1c0-2-1-5-2-7 0-2-1-5-2-7-1-3-2-5-3-7-1-3-2-5-3-7l-13 0c1 2 1 5 2 7 0 3 1 5 2 8 0 3 1 5 1 7 0 3 1 5 1 7l16 0m-19 42c0 2 1 4 1 5 1 1 1 2 2 3 1 1 2 2 4 2 1 0 2 0 4 0 1 0 2 0 3 0 2 0 3-1 4-2 1-1 1-2 2-3 0-1 1-3 1-5 0-1-1-3-1-4-1-1-1-2-2-3-1-1-2-1-4-2-1 0-2 0-3 0-2 0-3 0-4 0-2 1-3 1-4 2-1 1-1 2-2 3 0 1-1 3-1 4m-20-43c2 0 3 0 5 1 1 0 3 1 5 1l0-13c-2-1-4-2-6-2-3-1-5-1-8-1-3 0-6 0-8 1-3 1-5 2-7 4-1 1-3 3-4 6-1 3-1 6-1 11l0 31-9 0 0 7 10 6 5 14 11 0 0-14 16 0 0-13-16 0 0-31c0-3 1-5 2-6 1-1 3-2 5-2m-69 41c-3 0-6-1-8-4-2-2-3-5-4-10l23 0c0 2 0 4-1 6 0 1-1 3-2 4-1 1-2 2-3 3-2 0-3 1-5 1m2-55c-5 0-9 1-13 2-4 2-7 3-10 6-3 3-5 6-7 11-1 4-2 9-2 14 0 6 1 11 2 15 2 4 4 8 6 11 3 3 6 5 10 6 3 2 7 2 12 2 4 0 8 0 11-2 4-1 7-3 9-5 2-3 4-6 6-10 1-3 2-7 2-12l0-9-40 0c0-2 0-4 1-6 1-2 2-4 3-5 1-2 3-3 5-4 2 0 4-1 6-1 2 0 4 0 6 1 2 0 3 0 5 1 2 0 3 1 5 1 2 1 3 2 5 2l0-13c-2-1-3-2-5-2-1-1-3-1-5-2-1 0-3 0-5-1-2 0-5 0-7 0m-102 66l20 0 10-36c1-2 1-5 1-7 1-2 1-4 1-6l0 0c0 1 0 2 1 3 0 1 0 2 0 3 0 1 0 3 1 4 0 1 0 2 0 3l11 36 19 0-25-73c-3-7-6-12-10-15-4-4-10-5-16-5-2 0-4 0-5 0-1 0-3 0-4 1l0 14c1 0 2-1 3-1 1 0 3 0 4 0 2 0 4 0 5 1 1 0 2 1 3 2 1 1 2 2 3 3 0 1 1 3 2 4l1 4-25 65m382 89c-21 0-40 3-58 9-17 6-31 15-43 27-13 12-22 28-28 47-7 19-10 42-10 69 0 30 3 55 10 74 7 20 16 36 28 49 12 11 27 20 44 25 17 5 36 8 57 8 15 0 30-2 46-6 15-3 29-9 42-15l-23-62c-12 5-23 9-34 13-11 3-21 5-31 5-20 0-34-8-43-23-9-15-13-37-13-67 0-30 4-52 13-66 9-14 23-21 42-21 15 0 29 2 42 5 13 4 25 10 38 16l0-68c-6-3-12-6-19-8-6-3-12-5-18-6-7-2-13-3-20-4-7-1-14-1-22-1m-293 379c0 8 1 14 4 19 2 5 5 9 9 12 4 3 9 6 14 7 6 1 11 2 17 2 6 0 12-1 17-2 6-1 10-4 14-7 4-3 7-7 10-12 2-5 3-11 3-19 0-7-1-14-3-19-3-5-6-9-10-12-4-3-8-5-14-7-5-1-11-2-17-2-6 0-11 1-17 2-5 2-10 4-14 7-4 3-7 7-9 12-3 5-4 12-4 19m85-374l-81 0 0 297 81 0 0-297m-256-5c-9 0-18 1-26 3-8 2-14 5-21 9-6 3-11 7-16 12-4 4-8 9-12 14l-4 0c1-6 1-12 2-18 0-4 1-9 1-14 1-5 1-8 1-11l0-121-81 0 0 428 66 0 11-38 4 0c4 6 8 12 13 17 5 5 10 10 16 14 7 4 14 7 22 9 8 3 17 4 26 4 16 0 30-3 42-10 13-6 24-16 33-29 9-13 16-29 21-48 5-19 7-42 7-67 0-25-2-47-7-67-6-19-13-35-22-48-9-13-21-23-33-29-13-7-27-10-43-10m-25 243c-9 0-17-2-23-5-6-3-11-8-15-15-4-6-7-14-9-25-2-10-3-21-3-34l0-9c0-15 1-27 2-38 2-12 5-21 9-29 4-7 9-13 15-17 7-3 15-5 25-5 16 0 27 7 35 22 7 16 11 38 11 67 0 30-4 52-11 66-8 15-20 22-36 22m328 347c0-30 4-52 13-67 8-15 22-22 40-22 19 0 32 7 41 22 8 15 12 37 12 67 0 29-4 51-12 66-9 15-22 22-41 22-19 0-32-7-41-22-8-15-12-37-12-66m189 0c0-25-3-47-10-66-6-19-15-35-27-48-11-14-26-24-43-31-17-6-36-10-57-10-19 0-37 4-54 10-16 7-31 17-43 31-12 13-21 29-28 48-6 19-10 41-10 66 0 24 3 46 10 65 6 20 15 36 27 49 12 13 26 23 43 29 17 7 36 10 57 10 20 0 38-3 54-10 17-6 31-16 43-29 12-13 21-29 28-49 7-19 10-41 10-65m-340-149l-81 0 0 173c0 22-3 38-10 48-6 11-16 17-30 17-11 0-20-3-27-7-7-4-13-10-17-19-4-8-7-18-9-31-2-12-2-26-2-42l0-139-82 0 0 297 62 0 11-38 5 0c4 7 9 14 15 19 6 6 13 10 20 14 8 4 15 6 24 8 8 1 16 2 25 2 14 0 27-2 39-6 12-4 22-10 31-19 8-9 15-21 19-34 5-14 7-30 7-50l0-193" horiz-adv-x="1024" />
<glyph glyph-name="rgroup-label-a" unicode="&#xe829;" d="m519 368l-263 0-188 215-37-33 180-207-185-195 36-35 194 205 263 0z" horiz-adv-x="1024" />
<glyph glyph-name="rgroup-label-b" unicode="&#xe82a;" d="m947 503l-1 0-68-37-11 41 86 46 45 0 0-393-51 0z m-382 59c27 5 65 8 101 8 56 0 92-10 118-33 20-18 32-46 32-77 0-54-34-90-77-104l0-2c32-11 50-40 60-82 13-57 23-96 31-112l-54 0c-7 11-16 46-27 97-12 56-34 78-82 79l-49 0 0-176-53 0 0 402z m53-186l53 0c57 0 92 31 92 78 0 52-38 75-93 76-26 0-44-3-52-5z" horiz-adv-x="1024" />
<glyph glyph-name="save" unicode="&#xe82b;" d="m302 88c-12 0-23-1-32-4-5-2-10-6-13-9-4-3-9-7-9-15l0-170c0-7 5-14 9-17 3-3 8-5 13-6 9-4 20-5 32-5l482 0c13 0 23 1 33 5 5 1 9 3 13 6 4 3 8 9 8 17l0 170c0 7-4 12-8 15-4 3-8 7-13 9-10 3-20 4-33 4z m0-26l482 0c10 0 19-1 25-3 1-1 2-1 3-2l0-164c-1-1-2-1-3-2-6-2-15-3-25-3l-482 0c-10 0-19 1-24 3-2 1-3 1-3 2l0 164c0 1 1 1 3 2 5 2 14 3 24 3z m-95 772c-16 0-29-2-41-8-12-6-23-17-23-31l0-477c0-14 10-25 21-31 12-6 27-8 43-8l610 0c16 0 31 2 43 8 11 6 21 17 21 31l0 477c0 14-11 25-23 31-12 6-25 8-41 8z m0-26l610 0c12 0 22-3 29-6 7-4 9-7 9-7l0-477c0 0-2-3-9-6-7-4-17-7-29-7l-610 0c-12 0-22 3-29 7-7 3-9 6-9 6l0 477c0 0 2 3 9 7 7 3 17 6 29 6z m-100 26c-45 0-81-37-81-82l0-808c0-45 36-82 81-82l195 0c-12 0-23 1-32 5-5 1-10 3-13 6-4 3-8 9-9 15l-141 0c-31 0-54 25-54 56l0 808c0 31 23 56 54 56l39 0c5 8 12 14 20 18 12 6 25 8 41 8z m710 0c16 0 29-2 41-8 8-4 15-10 19-18l40 0c31 0 56-25 56-56l0-808c0-31-25-56-56-56l-79 0c-1-6-4-12-8-15-4-3-9-5-13-6-10-4-21-5-33-5l133 0c45 0 82 37 82 82l0 808c0 45-37 82-82 82z" horiz-adv-x="1024" />
<glyph glyph-name="select-fragment" unicode="&#xe82c;" d="m404 512l141-618 110 184 148-163 131 126-152 167 165 52z m30-38l464-214-154-43 151-171-96-95-151 167-94-168z m46-57l87-377 74 131 158-173 51 49-154 181 130 38z m-144 268l362 0 0-33-362 0z m528-300l-39-68 30-14 37 65z m-530-355l-188 338 28 16 189-338z m412-52l-9-16-151 0-19-32 188 0 13 23z m192 279l-44-14-55-98 22-25z m-669 545l-243-436 243-436 268 0-7 32-243 0-226 404 226 403 450 0 225-403-50-90 29-13 57 103-243 436z" horiz-adv-x="1024" />
<glyph glyph-name="select-lasso" unicode="&#xe82d;" d="m394 533l145-637 113 189 153-168 134 130-156 172 170 53z m32-39l478-221-158-45 155-176-98-97-156 171-97-172z m48-60l89-388 76 135 164-179 52 51-159 187 135 39z m66 365l4-27c0 0 1 0 3 0l0 27c-4 0-7 0-7 0z m-57 0c-5 0-8 0-16-1l0-27 16 1z m16 0l0-27 7 1z m64-1l0-27c5 0 10-1 16-2l0 28c-6 0-11 1-16 1z m-112-1c-8-1-10-1-16-2l0-27c3 0 9 1 16 2z m144-2l0-27c6-1 11-2 16-2l0 27c-5 1-10 1-16 2z m-176-1c0-1-5-1-5-1l5-10z m-45-9c0 0-2 0-3 0l0-29c2 1 5 2 7 2 5 1 8 2 9 2l0 4z m291-3l-6-26c0 0 7-1 16-4l0 28c-6 1-10 2-10 2z m-310-1c-5-1-10-2-16-4l0-29c4 1 8 2 13 3 1 1 2 1 3 1z m336-5l0-28c2-1 4-1 6-2 3-1 6-2 10-3l0 28c0 0 0 0 0 0-6 2-11 3-16 5z m-368-3c-5-2-11-4-16-5l0-21 7-7c0 0 4 1 9 3z m400-7l0-29c7-2 11-4 11-4l5 9 0 18c-2 1-3 1-5 2-3 1-7 2-11 4z m-469-19c-1 0-5-2-10-5l0-33c5 3 10 6 15 8l0 26-4 4c0 0 0 0-1 0z m533-7l0-31c5-3 10-6 16-9l0 31c-6 3-16 8-16 9z m-559-6c-6-3-11-6-16-9l0-34c2 2 8 5 16 9z m47-5l0-4c2 1 3 1 3 1z m544-7l0-32c6-4 14-10 16-10l0 32c-5 3-8 5-13 8-2 1-2 1-3 2z m-48-2l-2-2c0 0 1-1 2-1z m-575-4c-9-5-15-9-14-9l14-9z m655-14l0-11 7 6c0 0-4 3-7 5z m-703-19c0 0 0-1 0-1l0-42c0 1 0 1 1 1 5 5 10 10 15 14l0 20z m742-12l-8-5 0-26c4-4 9-8 13-13 1-1 2-3 3-4l0 40c-5 5-8 8-8 8z m-758-2c-5-5-10-9-15-14 0-1-1-1-1-2l0-38 6-2c0 0 3 3 8 9 1 1 1 1 2 2z m782-22l0-43c4-4 6-7 6-7l10 4 0 28c-3 4-6 8-10 12-2 2-4 4-6 6z m-814-11c-1-1-2-1-2-2l-9-10 11-4z m-34-45c0 0-3-5-7-12-2-4-5-10-7-15l0-52 16-2 0 80z m18-5l0-34c3 7 7 14 9 19 3 7 7 11 7 11z m878-15l-16-5 0-15c3-6 7-14 9-23 4-9 6-18 7-25z m16-20l0-59 16 1 0 3c0 1-1 4-2 10-2 8-4 18-8 28-1 6-4 12-6 17z m-942-28c-2-5-3-9-3-9l3 0z m-9-49c0 0-3-21 0-42 0-21 7-41 6-41l3 0 0 82z m25-1l0-80 16 2 0 4c-2 7-6 20-6 34-2 20 0 39 0 39z m926-21l0-81 6-1c0 0 2 4 4 12 2 7 4 17 6 27l0 43z m-16-50c-1-6-2-11-3-15-2-7-4-11-4-11l7-2z m-894-46l-16-3 0-13c3-7 8-16 13-25 1-2 2-2 3-4z m16-4l0-65c3-4 5-6 5-6l11 3 0 39c-1 0-1 0-1 1-6 11-12 22-15 28z m862-14l0-42c6 9 12 17 16 24 0 1 0 0 0 1l0 12z m-16-14c-3-5-7-11-11-17-1-2-3-4-5-7l0-35 5-2c0 0 4 4 9 10 1 1 1 2 2 3z m-814-24l0-10 6 2c0 0-3 3-6 8z m782-18c-2-3-4-5-4-5l4-2z m-750-18l0 0 0-41c0 0 0 0 0 0 5-5 11-9 16-13l0 39c-3 2-5 4-7 6-5 6-9 9-9 9z m-16-7l-15-7c0 0 3-3 9-9 2-1 4-3 6-5z m735-7c-1-1-4-3-10-8-2-1-4-3-6-5l0-34c3 2 3 2 6 4 3 3 6 5 10 7z m15-11l0-12c5 4 8 7 8 7z m-702-3l0-37c0 0 1-1 1-1l15 9 0 18c-5 3-11 7-16 11z m655-11l-16-10 0-28 3-3c0 0 9 6 13 8z m-587-29c-2-2-3-3-4-5l0-35c1-2 3-3 5-5-2-1-4-1-5-2l0-36c5 3 10 5 15 6l0 67c-4 4-8 7-11 9 0 0 0 0 0 1z m-20-19c-2-2-4-3-6-5 2-1 4-2 6-4z m47-5l0-50c1 0 1 0 1 0 5-6 10-12 15-19l0 54c0 0-1 0-1 0-5 5-10 10-15 15z m64-14l0-33c6 0 11 0 16-1l0 34c-5 0-10 0-16 0z m-16 0l-9 0c-2 0-5 0-7 0l0-77c4-5 7-10 10-15-1 0-1-1-2-1-2-1-5-3-8-4l0-37c6 2 11 5 16 7l0 85c-2 3-4 6-6 8l6 1 0 33z m48-1l0-83c1 2 2 3 3 5 5 7 8 14 11 20 1 2 1 4 2 6l0 50c-5 1-10 1-16 2z m32-4l0-34c6-1 11-2 16-2l0 34c-5 0-10 1-16 2z m32-5l0-34c1 0 1 0 2 0 5-1 9-2 14-2l0 33c-3 1-6 1-9 2-2 0-4 1-7 1z m32-5l0-6 0 6c0 0 0 0 0 0z m-239 0c-4-2-8-4-11-7-2-1-4-2-5-4l0-93c4-3 10-6 16-9l0 39c-5 5-8 10-9 15-1 5 2 12 9 18z m127-27c0-1-1-3-2-4-2-5-4-10-6-14-2-3-4-5-6-8 0 1-1 2-2 3l0-67c6-12 12-25 16-38z m-159 0c-10-14-11-28-10-36 1-9 4-18 10-25z m48-56l0-36c5-2 10-3 15-4l0 35c-5 1-10 2-15 5z m47-5c-5-2-10-2-16-2l0-34c6 0 11 1 16 1z m80-18l0-133 16-3 0 97c-4 13-10 26-16 39z" horiz-adv-x="1024" />
<glyph glyph-name="select-rectangle" unicode="&#xe82e;" d="m379 520l150-658 118 195 157-174 139 135-162 178 177 55z m31-40l495-229-163-46 160-182-102-101-161 178-101-179z m50-61l92-403 79 140 169-185 55 53-165 194 139 40z m-311-396l-113 0 0 114 113 0z m-78 35l43 0 0 44-43 0z m805 79l0-44 62-70 50 0 0 114z m34-35l43 0 0-43c-46-4-43-1-43 43z m78 620l-112 0 0 112 112 0z m-78 35l43 0 0 43-43 0z m-761-35l-113 0 0 112 113 0z m-78 35l43 0 0 43-43 0z m43-659l79 0 0-34-79 0z m116 0l114 0 0-34-114 0z m152 1l0-35 101 0-8 35z m-307 611l35 0 0-111-35 0z m0-446l35 0 0-112-35 0z m0 149l35 0 0-112-35 0z m0 148l35 0 0-112-35 0z m837 149l34 0 0-111-34 0z m34-463l-34-10 0-85 34 0z m-34 166l34 0 0-112-34 0z m0 148l34 0 0-112-34 0z m-798 232l79 0 0-33-79 0z m571 0l114 0 0-33-114 0z m151 0l62 0 0-33-62 0z m-606 0l114 0 0-33-114 0z m152 0l114 0 0-33-114 0z m151 0l114 0 0-33-114 0z" horiz-adv-x="1024" />
<glyph glyph-name="settings" unicode="&#xe82f;" d="m352 508c17 17 35 30 55 41l-79 78c-39-26-71-59-96-95l79-79c11 20 24 38 41 55z m0-334c-21 21-37 45-49 71l-80-81c28-45 62-80 102-108l79 79c-19 10-36 23-52 39z m334 0c-16-17-35-31-54-41l78-79c39 27 71 59 96 96l-79 78c-11-19-24-38-41-54z m10 463l-80-80c25-12 49-28 70-49 16-16 29-33 39-52l79 79c-29 42-68 77-108 102z m-473-473l-98-98 105-105 95 95c-42 29-77 68-102 108z m105 463l-112 113-96-96 112-112c27 39 60 71 96 95z m382-573l98-98 96 96-98 98c-27-39-59-71-96-96z m84 681l-98-98c45-28 80-62 108-102l95 95z m-67-507l79-78c78 116 77 269-2 385l-79-79c40-70 41-157 2-228z m-323-93l-79-79c116-79 269-80 385-2l-78 79c-71-39-158-38-228 2z m-93 318l-79 79c-73-111-77-254-9-368l80 81c-29 66-27 144 8 208z m305 104l80 80c-114 67-257 64-368-10l79-78c64 35 142 37 209 8z m-104 17c24 0 46-3 68-10l0 112c-46 8-93 8-136 0l0-112c22 7 44 10 68 10z m-237-236c0 30 6 58 16 84l-113 0c-12-51-14-100-4-148l111 0c-6 20-10 42-10 64z m237-237c-24 0-46 4-68 10l0-111c46-9 93-8 136 0l0 111c-22-6-45-10-68-10z m334 321l-113 0c10-26 15-54 15-84 0-22-3-44-9-64l111 0c10 50 7 102-4 148z m-668 0l-139 0 0-148 135 0c-10 50-7 102 4 148z m402 254l0 158-136 0 0-158c46 8 93 8 136 0z m-136-676l0-138 136 0 0 138c-46-9-93-8-136 0z m541 422l-139 0c12-51 13-100 4-148l135 0 0 148z m-405-311l0-111c137 27 245 136 270 274l-111 0c-21-78-82-140-159-163z m-295 163l-111 0c25-138 133-247 270-274l0 111c-77 23-138 85-159 163z m159 290l0 112c-130-26-234-126-266-254l113 0c26 68 83 121 153 142z m289-142l113 0c-32 128-136 228-266 254l0-112c70-21 126-74 153-142z" horiz-adv-x="1024" />
<glyph glyph-name="sgroup" unicode="&#xe830;" d="m810 791l0-53 135 0 0-780-135 0 0-53 188 0 0 886z m-580-833l-153 0 0 780 153 0 0 53-204 0 0-886 204 0z" horiz-adv-x="1024" />
<glyph glyph-name="template-0" unicode="&#xe831;" d="m777 159l1 372 34 0 0-372z m-571 330l319 193 18-29-319-194z m317-491l-319 193 18 29 319-192z m-11-136l-424 238 0 486 424 248 424-238 0-486z m-384 258l384-219 389 228 0 447-389 219-384-228z" horiz-adv-x="1024" />
<glyph glyph-name="template-1" unicode="&#xe832;" d="m707 48l-32 12 125 344 33-12z m-396 1l-117 352 32 11 118-352z m502-164l-602 0-185 572 486 354 486-354z m-577 35l552 0 170 524-446 324-446-324z" horiz-adv-x="1024" />
<glyph glyph-name="template-2" unicode="&#xe833;" d="m512-138l-424 238 0 486 424 248 424-238 0-486z m-384 258l384-219 389 228 0 447-389 219-384-228z" horiz-adv-x="1024" />
<glyph glyph-name="template-3" unicode="&#xe834;" d="m813-115l-602 0-185 572 486 354 486-354z m-577 35l552 0 170 524-446 324-446-324z" horiz-adv-x="1024" />
<glyph glyph-name="template-4" unicode="&#xe835;" d="m998-73l-972 0 486 842z m-913 34l854 0-427 740z" horiz-adv-x="1024" />
<glyph glyph-name="template-5" unicode="&#xe836;" d="m998-138l-972 0 0 972 972 0z m-937 35l902 0 0 902-902 0z" horiz-adv-x="1024" />
<glyph glyph-name="template-6" unicode="&#xe837;" d="m296-126l-270 338 95 422 390 188 390-187 97-421-269-339z m-233 346l250-312 399 1 249 313-90 389-360 173-360-174z" horiz-adv-x="1024" />
<glyph glyph-name="template-7" unicode="&#xe838;" d="m714-138l-403 0-285 284 0 403 285 285 403 0 284-285 0-403z m-389 34l374 0 265 265 0 374-265 265-374 0-265-265 0-374z" horiz-adv-x="1024" />
<glyph glyph-name="template-custom" unicode="&#xe839;" d="m649-30c0-5-1-10-1-14-1-5-2-10-3-14-2-4-4-8-6-12-2-4-5-8-8-12l-14 0c3 4 5 8 7 12 2 4 4 8 5 13 1 4 3 9 3 13 1 5 1 9 1 14 0 9-1 19-4 27-3 9-7 18-12 25l14 0c3-4 6-7 8-11 2-5 4-9 6-13 1-5 2-9 3-14 0-5 1-9 1-14m-45-19l1-1c0-2-1-5-2-7 0-2-1-5-2-7-1-3-2-5-3-7-1-3-2-5-3-7l-13 0c1 2 1 5 2 7 0 3 1 5 2 8 0 3 1 5 1 7 0 3 1 5 1 7l16 0m-19 42c0 2 1 4 1 5 1 1 1 2 2 3 1 1 2 2 4 2 1 0 2 0 4 0 1 0 2 0 3 0 2 0 3-1 4-2 1-1 1-2 2-3 0-1 1-3 1-5 0-1-1-3-1-4-1-1-1-2-2-3-1-1-2-1-4-2-1 0-2 0-3 0-2 0-3 0-4 0-2 1-3 1-4 2-1 1-1 2-2 3 0 1-1 3-1 4m-20-43c2 0 3 0 5 1 1 0 3 1 5 1l0-13c-2-1-4-2-6-2-3-1-5-1-8-1-3 0-6 0-8 1-3 1-5 2-7 4-1 1-3 3-4 6-1 3-1 6-1 11l0 31-9 0 0 7 10 6 5 14 11 0 0-14 16 0 0-13-16 0 0-31c0-3 1-5 2-6 1-1 3-2 5-2m-69 41c-3 0-6-1-8-4-2-2-3-5-4-10l23 0c0 2 0 4-1 6 0 1-1 3-2 4-1 1-2 2-3 3-2 0-3 1-5 1m2-55c-5 0-9 1-13 2-4 2-7 3-10 6-3 3-5 6-7 11-1 4-2 9-2 14 0 6 1 11 2 15 2 4 4 8 6 11 3 3 6 5 10 6 3 2 7 2 12 2 4 0 8 0 11-2 4-1 7-3 9-5 2-3 4-6 6-10 1-3 2-7 2-12l0-9-40 0c0-2 0-4 1-6 1-2 2-4 3-5 1-2 3-3 5-4 2 0 4-1 6-1 2 0 4 0 6 1 2 0 3 0 5 1 2 0 3 1 5 1 2 1 3 2 5 2l0-13c-2-1-3-2-5-2-1-1-3-1-5-2-1 0-3 0-5-1-2 0-5 0-7 0m-102 66l20 0 10-36c1-2 1-5 1-7 1-2 1-4 1-6l0 0c0 1 0 2 1 3 0 1 0 2 0 3 0 1 0 3 1 4 0 1 0 2 0 3l11 36 19 0-25-73c-3-7-6-12-10-15-4-4-10-5-16-5-2 0-4 0-5 0-1 0-3 0-4 1l0 14c1 0 2-1 3-1 1 0 3 0 4 0 2 0 4 0 5 1 1 0 2 1 3 2 1 1 2 2 3 3 0 1 1 3 2 4l1 4-25 65m382 89c-21 0-40 3-58 9-17 6-31 15-43 27-13 12-22 28-28 47-7 19-10 42-10 69 0 30 3 55 10 74 7 20 16 36 28 49 12 11 27 20 44 25 17 5 36 8 57 8 15 0 30-2 46-6 15-3 29-9 42-15l-23-62c-12 5-23 9-34 13-11 3-21 5-31 5-20 0-34-8-43-23-9-15-13-37-13-67 0-30 4-52 13-66 9-14 23-21 42-21 15 0 29 2 42 5 13 4 25 10 38 16l0-68c-6-3-12-6-19-8-6-3-12-5-18-6-7-2-13-3-20-4-7-1-14-1-22-1m-293 379c0 8 1 14 4 19 2 5 5 9 9 12 4 3 9 6 14 7 6 1 11 2 17 2 6 0 12-1 17-2 6-1 10-4 14-7 4-3 7-7 10-12 2-5 3-11 3-19 0-7-1-14-3-19-3-5-6-9-10-12-4-3-8-5-14-7-5-1-11-2-17-2-6 0-11 1-17 2-5 2-10 4-14 7-4 3-7 7-9 12-3 5-4 12-4 19m85-374l-81 0 0 297 81 0 0-297m-256-5c-9 0-18 1-26 3-8 2-14 5-21 9-6 3-11 7-16 12-4 4-8 9-12 14l-4 0c1-6 1-12 2-18 0-4 1-9 1-14 1-5 1-8 1-11l0-121-81 0 0 428 66 0 11-38 4 0c4 6 8 12 13 17 5 5 10 10 16 14 7 4 14 7 22 9 8 3 17 4 26 4 16 0 30-3 42-10 13-6 24-16 33-29 9-13 16-29 21-48 5-19 7-42 7-67 0-25-2-47-7-67-6-19-13-35-22-48-9-13-21-23-33-29-13-7-27-10-43-10m-25 243c-9 0-17-2-23-5-6-3-11-8-15-15-4-6-7-14-9-25-2-10-3-21-3-34l0-9c0-15 1-27 2-38 2-12 5-21 9-29 4-7 9-13 15-17 7-3 15-5 25-5 16 0 27 7 35 22 7 16 11 38 11 67 0 30-4 52-11 66-8 15-20 22-36 22m328 347c0-30 4-52 13-67 8-15 22-22 40-22 19 0 32 7 41 22 8 15 12 37 12 67 0 29-4 51-12 66-9 15-22 22-41 22-19 0-32-7-41-22-8-15-12-37-12-66m189 0c0-25-3-47-10-66-6-19-15-35-27-48-11-14-26-24-43-31-17-6-36-10-57-10-19 0-37 4-54 10-16 7-31 17-43 31-12 13-21 29-28 48-6 19-10 41-10 66 0 24 3 46 10 65 6 20 15 36 27 49 12 13 26 23 43 29 17 7 36 10 57 10 20 0 38-3 54-10 17-6 31-16 43-29 12-13 21-29 28-49 7-19 10-41 10-65m-340-149l-81 0 0 173c0 22-3 38-10 48-6 11-16 17-30 17-11 0-20-3-27-7-7-4-13-10-17-19-4-8-7-18-9-31-2-12-2-26-2-42l0-139-82 0 0 297 62 0 11-38 5 0c4 7 9 14 15 19 6 6 13 10 20 14 8 4 15 6 24 8 8 1 16 2 25 2 14 0 27-2 39-6 12-4 22-10 31-19 8-9 15-21 19-34 5-14 7-30 7-50l0-193" horiz-adv-x="1024" />
<glyph glyph-name="transform-flip-h" unicode="&#xe83a;" d="m998 348l-181 135 44-119-698 0 44 119-181-135 181-135-43 116 696 0-43-116z" horiz-adv-x="1024" />
<glyph glyph-name="transform-flip-v" unicode="&#xe83b;" d="m512 834l-135-181 119 44 0-698-119 44 135-181 135 181-116-43 0 696 116-43z" horiz-adv-x="1024" />
<glyph glyph-name="transform-rotate" unicode="&#xe83c;" d="m873 156c28 58 44 123 44 192 0 246-200 446-446 446-245 0-445-200-445-446 0-246 200-446 445-446 72 0 139 17 199 47l-13 34c-56-28-119-44-186-44-225 0-409 183-409 409 0 226 184 409 409 409 226 0 410-183 410-409 0-63-15-121-41-174l-2 1-84 97 31-232 213 97z" horiz-adv-x="1024" />
<glyph glyph-name="undo" unicode="&#xe83d;" d="m486 672c44 3 87-1 130-13 171-50 320-233 371-616 1-2 2-3 2-5l10-68-35 60c-116 205-226 295-318 315-93 20-171-29-229-113 0-1 1-4 3-9 5-8 14-22 27-37 25-32 63-74 100-125l15-22-26 0c-136 0-373 5-507 7l-13 2 0 13c0 0 4 382 4 517l0 32 22-23c31-31 71-67 104-99 90 103 214 174 340 184z m2-26c-122-10-245-81-332-184l-8-12-10 12c-27 27-62 58-92 87-1-149-3-459-4-477 129-2 333-6 467-6-30 39-61 77-82 103-13 16-23 29-29 41-4 6-6 12-7 18-1 6 1 13 5 19 0 0 1-1 2 0 61 89 149 146 253 124 92-19 194-112 299-277-58 335-193 497-342 540-40 12-79 15-120 12z" horiz-adv-x="1024" />
<glyph glyph-name="zoom-in" unicode="&#xe83e;" d="m320 745c-129 0-233-105-233-233 0-129 104-234 233-234 129 0 233 105 233 234 0 128-104 233-233 233z m0-25c115 0 208-93 208-208 0-115-93-208-208-208-115 0-208 93-208 208 0 115 93 208 208 208z m0 86c-141 3-272-110-291-250-24-137 64-281 197-323 76-26 163-19 234 20 116-118 232-237 348-354 51-45 141-13 151 54 12 45-20 82-51 110-107 109-214 218-321 327 60 123 17 284-97 362-49 35-109 54-170 54z m0-25c131 3 253-104 267-235 7-55-4-112-30-161 121-124 243-247 364-371 37-41 2-114-54-111-43 1-66 43-96 69-102 104-204 209-307 313-106-71-260-50-343 46-91 96-93 259-5 357 51 58 127 93 204 93z m438 37c0-37 0-74 0-111-37 0-74 0-111 0 0-43 0-87 0-130 37 0 74 0 111 0 0-37 0-74 0-111 43 0 86 0 130 0 0 37 0 74 0 111 36 0 73 0 110 0 0 43 0 87 0 130-37 0-74 0-110 0 0 37 0 74 0 111-44 0-87 0-130 0z m25-25c26 0 53 0 79 0 0-37 0-74 0-111 37 0 74 0 111 0 0-27 0-53 0-79-37 0-74 0-111 0 0-38 0-74 0-111-26 0-53 0-79 0 0 37 0 73 0 111-37 0-74 0-111 0 0 26 0 52 0 79 37 0 74 0 111 0 0 37 0 74 0 111z" horiz-adv-x="1024" />
<glyph glyph-name="zoom-out" unicode="&#xe83f;" d="m320 752c-129 0-233-105-233-234 0-129 104-234 233-234 129 0 234 105 234 234 0 129-105 234-234 234z m0-26c116 0 209-93 209-208 0-115-93-208-209-208-115 0-208 93-208 208 0 115 93 208 208 208z m0 87c-141 3-272-110-291-250-24-137 64-282 197-324 76-27 164-19 234 20 117-118 232-237 349-354 51-46 141-14 152 54 11 45-21 82-52 110-107 109-214 218-321 327 60 124 16 285-97 362-49 36-110 55-171 55z m0-26c132 3 254-104 268-235 7-55-4-112-30-161 121-124 243-247 364-371 37-41 2-114-53-111-44 0-67 43-97 69-102 104-205 208-307 313-106-71-260-50-344 46-91 96-93 259-4 357 50 59 126 94 203 93z m354-24c0-40 0-80 0-121 108 0 216 0 324 0 0 41 0 81 0 121-108 0-216 0-324 0z m25-25c91 0 183 0 274 0 0-24 0-47 0-71-91 0-183 0-274 0 0 24 0 47 0 71z" horiz-adv-x="1024" />
</font>
</defs>
</svg>
